<?xml version="1.0" standalone="no"?><!DOCTYPE svg PUBLIC "-//W3C//DTD SVG 1.1//EN" "http://www.w3.org/Graphics/SVG/1.1/DTD/svg11.dtd"><svg t="1676440325945" class="icon" viewBox="0 0 1024 1024" version="1.1" xmlns="http://www.w3.org/2000/svg" p-id="2694" xmlns:xlink="http://www.w3.org/1999/xlink" width="200" height="200"><path d="M682.09 314.62c-86.2 0-156.32-70.13-156.32-156.34S595.89 1.95 682.09 1.95s156.34 70.13 156.34 156.33-70.13 156.34-156.34 156.34z m0-240.58c-46.45 0-84.23 37.79-84.23 84.24s37.79 84.25 84.23 84.25c46.46 0 84.25-37.8 84.25-84.25s-37.78-84.24-84.25-84.24zM682.09 789.71c-86.2 0-156.32-70.13-156.32-156.33s70.12-156.34 156.32-156.34 156.34 70.13 156.34 156.34-70.13 156.33-156.34 156.33z m0-240.58c-46.45 0-84.23 37.8-84.23 84.25s37.79 84.24 84.23 84.24c46.46 0 84.25-37.79 84.25-84.24s-37.78-84.25-84.25-84.25z" fill="#231815" p-id="2695"></path><path d="M561.82 669.43H37c-19.91 0-36.04-16.14-36.04-36.04v-475.1c0-19.91 16.14-36.04 36.04-36.04h524.82c19.91 0 36.04 16.14 36.04 36.04s-16.14 36.04-36.04 36.04H73.04v403.02h488.78c19.91 0 36.04 16.14 36.04 36.04s-16.14 36.04-36.04 36.04z" fill="#231815" p-id="2696"></path><path d="M342.49 548.9c-86.2 0-156.34-70.13-156.34-156.34s70.13-156.33 156.34-156.33 156.34 70.13 156.34 156.33S428.69 548.9 342.49 548.9z m0-240.58c-46.46 0-84.25 37.79-84.25 84.24s37.79 84.25 84.25 84.25 84.25-37.8 84.25-84.25-37.79-84.24-84.25-84.24zM342.49 1024c-86.2 0-156.34-70.13-156.34-156.33s70.13-156.34 156.34-156.34 156.34 70.13 156.34 156.34S428.69 1024 342.49 1024z m0-240.58c-46.46 0-84.25 37.8-84.25 84.25s37.79 84.24 84.25 84.24 84.25-37.79 84.25-84.24-37.79-84.25-84.25-84.25z" fill="#231815" p-id="2697"></path><path d="M987.59 903.71h-524.8c-19.91 0-36.04-16.14-36.04-36.04s16.14-36.04 36.04-36.04h488.76V428.61H462.78c-19.91 0-36.04-16.14-36.04-36.04 0-19.91 16.14-36.04 36.04-36.04h524.8c19.91 0 36.04 16.14 36.04 36.04v475.1c0.01 19.91-16.13 36.04-36.03 36.04z" fill="#231815" p-id="2698"></path></svg>