<svg viewBox="0 0 1080 1080" xmlns="http://www.w3.org/2000/svg" id="dont_give_up_try_again"><defs><style>.cls-1{fill:#f9f1cb;}.cls-2{fill:#89574f;}.cls-3{fill:#9a702d;}.cls-4{fill:#72ccd1;}.cls-5{fill:#efca87;}.cls-6{fill:#f37a81;}.cls-7{fill:#c2dc82;}.cls-8{fill:#f2d0b9;}.cls-9{fill:#e8a1a4;}.cls-10{fill:#483613;}</style></defs><title>dont give up, try again</title><path d="M302.38,749.75l-22.35,42H238.74l6.06-40.53Z" class="cls-1" id="path1693"></path><path d="M714.17,605.81s-5.22,25.05-11,51.16-18.35,69.37-19.28,83-.67,62.28-.67,66-1.88,9.11,11.25,12.06a25.14,25.14,0,0,0,21.83-5.36s3.08-47.54,7.1-62.54,12.32-52.1,13.52-55.85,4.15-10.18,4.15-10.18l-.63-22.3s4.74-3,8.34,12.5,10,73.3,12.69,90.35,7.76,51.14,9.66,51.89,20.26,2.47,21.59,2.28,5.33-4.75,5.33-4.75.16-50,.16-55.67a34.32,34.32,0,0,0-2.65-11.75s-13.64,4.17-18-36.93,0-114,0-114-8.15,9.09-33.9,11.55-29.52-1.5-29.52-1.5Z" class="cls-2" id="path1691"></path><path d="M430.78,389.25c.4-2.28,7.37-12.59,27.46-11.79s29.46,8.44,55.31,5.09,47.31-6.39,48.89,2.55c1.64,9.29,10.06,35.75,12.85,40.85,3.09,5.64.27,13.52-6.43,20.35s-8.43,9.51-8.43,9.51l-7.17-10.38s-18.86,28-25.11,47.48-13.82,56.7-25.19,76-29.52,21.52-42.24,15.53-11.32-13.81-9.85-26.4,5.89-41.52,6.56-43,7.77-22.9,5.36-36.56-1.87-21.17,3.48-21.3,14.6-.54,16.34,4.82.14,21.16,15,20.36,30.14-10.45,37.77-18.08,18.08-20.5,19.15-25.58-1.87-13.53-1.87-13.53-19.56,12.19-32.15,5.76-15.94-20.36-15.94-20.36-.4-5.89-8.3-7.23S480.6,407.46,482.34,414s13,9.37,7,15.27-21,10.31-32.68,1.74-13.12-12.33-12.32-18.62,1.88-15.67-1.07-19-12.45-4.15-12.45-4.15Z" class="cls-3" id="path1677"></path><path d="M721.67,372.77s-22.59,18.15-23.25,20.9,2.84,6.34,4.83,7.86,13,7.48,13.26,7.67,9.28,3.6,9.75,4.55,3.32,18.18,3.32,18.18,5.49-1.23,6.06-1.14,7.38,7.58,7.38,7.58-1.12-.64-5.68,4.18S718.59,461,717.92,467.73s6.3,12.59,19.69,28.26,28.66,34.29,31.6,37.5,3.08,30.27,6.3,39.91a32.21,32.21,0,0,1,1,6.93c.08-.25.39-1.3.39-1.3s9.91,22.23,7.23,56.52-.25,69.36,5.63,90.26c5.81,20.7,36.76,27.43,37.39,27.57,13.81-1.33,29.59-5.46,33.19-7.21,5-2.41,7-5.76,8.3-14.73S865,683,859.49,667.29s-14.6-52.1-20.76-64-10.28-44.11-10.28-44.11-4,.86-9.6,1.66-36.31-7.48-42.33-11.9S771,536.58,771,536.58s13.12,7.63,25.71,11.25,8.57,4.42,27.29-2,20.79-27.64,16.78-45.46-15.14-33.34-24.92-53-25.44-48.48-29.6-51.29-46.07-5.9-50-8.84-12.86-14.47-14.6-14.47h0Zm37.12,57.91a8.37,8.37,0,0,1,4.5,1c5.87,3.4,17.61,18.18,22.82,17s8.9-3.88,7.1,2.94A46.86,46.86,0,0,1,789.43,462l-36.28-26.8-7.95.09c.52-.29,7.68-4.4,13.59-4.56Z" class="cls-4" id="path1670"></path><path d="M634.21,317.62s-12.88-2-13-9.37,8.72-13.64,11.46-18.85,2.09-10.89,11-13.73,24.9-.76,25.85-.57,14,4.26,14,4.64,11.46,2.09,14,13.83a102.71,102.71,0,0,1,2.36,21.4l-9.85,13a30,30,0,0,1-4.54-11c-1.33-6.63-2.18-10.23-2.65-10.23s-14.3,2.75-14.87,3.13,3-3-9.38-5.4-13.25,4.55-16.38,8A23.32,23.32,0,0,1,634.21,317.62Z" class="cls-3" id="path1664"></path><path d="M623,319.14c-.76,2.18.09,16.19,4.07,18.94a87.09,87.09,0,0,1,7.29,5.68l-1.51-23.67Z" class="cls-3" id="path1666"></path><path d="M705.71,328s-5,5.58-4.17,8.9,4.74,11.46,4.74,11.46,4.07,2,4.17.56S705.71,328,705.71,328Z" class="cls-3" id="path1668"></path><path d="M399.89,616.16a22.44,22.44,0,0,1-5.06.29h-5.06l3.15,6h3c2.38,0,4.9-.83,4.92,1,.51-1.27-1-2.57-.93-7.34Z" class="cls-5" id="path1660"></path><path d="M327.66,512.33s-30.4,20.09-46.07,45-10.58,46.87,1.74,68,34.55,52.5,44.6,69.38,16.34,72,16.34,72L333.55,730.9s1.74,22.5-8.17,44.6S310.65,802,306.23,824.25s-2.14,24.51,4.82,30,15,7.23,16.34,7.23,31.07-2.41,32-2.68,8.44-.27,8.44-.8-12.86-5-13.66-15.67-4.82-38.44-4.82-38.44,8.7,32,14.73,39.51,12.45,14.73,19.69,14.06,37.9-8.44,37.9-8.44.13-5.76-6-16.74-13.12-31.87-13.12-31.87,15.4,23.44,21.83,32.54,14.19,11.52,23.3,12.46S477.93,844.2,482,843s2.67-19.56-1.75-25.31S453.33,777.59,445,748s-14.39-56.25-14.39-56.25a168.94,168.94,0,0,1-21.92-11c-10.85-6.56-9.78-23.31-9.78-23.31s1.47-17-4.29-23.7-14.86-33.75-18.75-41.92-1.6-41.65-1.6-41.65-19.82-4.56-30.27-16.88-16.35-21-16.34-21Z" class="cls-6" id="path1684"></path><path d="M243.66,625.5l-2.27,37.88,32.09-5.76-16.56-31.36Z" class="cls-1" id="path1695"></path><path d="M462.92,465.72s-.13,32.68-2.94,43-6.16,18.62-6.3,20.36-6.56,46.21-6.56,46.21-5.49-1.21-11.38-1.88a25.15,25.15,0,0,1-9.11-2.54s-11.52,5.48-19.69-2,1.75-6.83,2.28-16.47.54-65.89-.13-74.2-2-20.48-2.28-22.09-5.09,2.68-5.09,2.68,1.07,60.13.81,62.41-.67,15.94-.67,15.94-7,5.48-12.73,6.82S363.55,540.32,350,523s-17.15-31.34-15-36.16,18.21-13.13,35.09-20.89S398,437.33,401.86,431.3s16.87-9.78,16.87-9.78l9.51-4s2.28,16.21,10.85,15.81,6.83-11.65,6.83-11.65l5.76,8.17-3.22,23.7-4.15,30.81s4.34,1.63,10.05-1.88,8.56-16.74,8.56-16.74Z" class="cls-7" id="path1679"></path><path d="M556.67,569.65s-13.75-25.41-24.55-7.23S522.84,634,523.41,638s3.41,122.54,3.41,124.62,3,100.39,3,102.66-1.52,38.26,5.11,40.53,28.6,1,28.6,1l-1.9-112.69Z" class="cls-1" id="path1699"></path><path d="M644.38,380.65a116.73,116.73,0,0,0-19.4,1.77c-26.12,4.28-55.45,7.5-55.45,7.5l-6.16,2.81s7.5,22.5,10,27.19,1.21,17.54,1.21,17.54.94.54,9.64.27,48.62-4.55,58.93,3.62,13.53,14.86,13.93,15.4a9.3,9.3,0,0,1,1.68,2.37l1.46-36.84s10.32,16.47,9.94,55.1-1.14,77.09-6.63,104.93-10.79,65.16-15.72,90.35a343.28,343.28,0,0,0-5.73,43c1.16,11.71,2.74,22.48,4,26.39,2.68,8.17,12.19,5.62,18.21,6a59.2,59.2,0,0,0,10.32-.13s14.33-66.29,15.4-72.72,15.74-64.46,15.74-65.22,1.7-15.72,1.7-15.72-7.58-6.25-6.82-19.89,9.66-42.43,9.66-42.43-33-63.07-35-73.11-5.87-40.72-3.41-48.48a155.47,155.47,0,0,1,7.2-17.43l-2.08-7L658.74,383s-3.62-2.29-14.36-2.32Z" class="cls-4" id="path1686"></path><path d="M222.45,583.83s-11.36-25.19-19.89-19.32-10.23,11.36-10.23,50.19,2.27,186.19,2.27,195.66,1.33,90.91,1.33,90.91-1.7,7.39,11.74,5.87a52.69,52.69,0,0,0,23.3-8.9l-2.27-107-2.27-71.6L224.34,631Z" class="cls-1" id="path1697"></path><path d="M443.29,654.29s7.58-19.7,18.94-23.87,48.77.3,48.77.3l.4,22Z" class="cls-1" id="path1707"></path><path d="M513.55,747l.53,39.65L472,785.55s9.51-37,22.37-37.23A147.47,147.47,0,0,0,513.55,747Z" class="cls-1" id="path1709"></path><path d="M647.85,749.18S668,773.26,660.94,778s-81.84,2.83-81.84,2.83l-1-35Z" class="cls-1" id="path1711"></path><path d="M573.22,619.82s59.29-1.9,61.94.56-2.46,29.36-9.47,31.25-51.9-.18-51.9-.18Z" class="cls-1" id="path1714"></path><path d="M926.81,287.93a22.41,22.41,0,0,0-7.17,1c-32.38,9.66-38.82,46-44.7,68.56s-6.25,61.75,1.71,80.88,6.44,39.2,3.79,35.42-11.75,40.72-1.52,79A84.43,84.43,0,0,0,921,606a113.31,113.31,0,0,1-3.79-21.78c-1.14-13.26-8.52-18.75-16.1-33.15s-.38-14-.38-14l21.59,22.36-.95-83.53s-2.64-79.17.76-96.79,10.42-2.84,10.42-2.84,5.87-5.3,9.66,29.55c3.43,31.56,5.31,191.44,12.66,234.55l2.49-3.67s8.14.76,30.12-18.18,25.94-42,20.45-52.09-4.17-31.06-3.22-68-13.45-55.69-22.92-73.11-20.64-83.15-20.64-83.15-7.72-53.44-34.31-54.22Z" class="cls-1" id="path1716"></path><path d="M888,274.15s-16.1,12.31-23.1,1.71-28.41.19-26.14,12.5,3.41,18.18-5.5,24.62-47.35,16.67-47.35,16.67l74.47-5.2S876.16,286,888,274.15Z" class="cls-1" id="path1722"></path><path d="M433.06,253.89s-25.56-23.49-46.78-14-29.17-22-48.11-22.35-12.12,15.72-12.12,15.72-34.09-19.13-48.3,1.9-34.47,24.43-34.47,24.43S289.69,263,324,261.09s109.09-7.2,109.09-7.2Z" class="cls-1" id="path1724"></path><path d="M221.12,406.55s-9.85-28.41-29.17-13.64S184,417.34,184,417.34l-15.34,12.32s73.11-.19,79.55-.76,23.48-6.44,23.48-6.44-22.35-3.41-28.79-4.55-12.12-11.74-12.12-11.74-5.87-4.93-9.66.38Z" class="cls-1" id="path1728"></path><path d="M1008.57,920.05c0,11.83-91.51,22.73-238.93,28.45s-327.46,5.37-470.1-.92S74.22,930,83.64,918.23l462.1,1.82Z" class="cls-1" id="path2533"></path><path d="M954.71,815.54s-7.5,56.79-12.32,73.93-5.89,27.32-5.89,27.32l37.12,1.53s-13.82-27.47-17.8-57.2-1.11-45.58-1.11-45.58Z" class="cls-1" id="path1732"></path><path d="M308.89,153c-12.42,0-18.28,2.56-28.1,12.38-9.56,9.56-12.4,15.77-12.4,27.15v8.55l-4-1.4c-5.56-1.94-16.81-1.12-22.13,1.61a30,30,0,0,0-12.06,11.55c-4.07,7.83-2.46,23,3.26,30.74L236,247l-13.06,1.78c-18.94,2.56-27.53,6.36-25.63,11.32,1.26,3.27,6,3.71,47.11,4.37,63.86,1,89,1.05,102.5.06,6.87-.51,26.89-2.06,44.5-3.45s41.89-3.23,54-4.08c30-2.13,49-4.13,61.5-6.47,5.78-1.08,11.62-2.1,13-2.25,3.11-.35,3.82-3.28,1.13-4.72-1.1-.59-8-1.77-15.31-2.62s-22-2.64-32.59-4-24.44-2.45-30.75-2.45H430.89v-2.84c0-4.9-4.14-11.31-9-13.86-5.25-2.77-9.72-2.86-17-.34-3,1-5.63,1.75-5.8,1.58s.44-4,1.35-8.54c1.9-9.36,1.42-16-1.67-23-2.57-5.82-5.25-8.61-11.39-11.85-4.48-2.37-6.08-2.65-15.5-2.65-12,0-17.27,1.52-24.57,7.1a34.25,34.25,0,0,1-4.94,3.39c-.27,0-.49-1.11-.49-2.46,0-4.42-4-13.24-8.07-17.88a36.18,36.18,0,0,0-9.71-7.34c-5-2.46-6.87-2.81-15.22-2.81Zm.22,5.6a27.28,27.28,0,0,1,24.8,16.09c2.77,6.35,3.81,18.77,2,24.14-.65,2-.89,4.1-.53,4.68,1.12,1.81,3.62-1.08,6.61-7.65,1.53-3.36,4.26-7.37,6.08-8.91,11-9.31,30-11.15,39.56-3.83a22.31,22.31,0,0,1,5.25,6.38c4,7.84,1.67,29.51-4,37.18-1.49,2-2,3.74-1.58,5.38.81,3.25,3.08,3.06,5.14-.42s12.69-9,18.76-9.77c5.62-.75,9.09.78,12.12,5.36A13.33,13.33,0,0,1,425.72,238c-.31,1.91.4,2,15.68,2.6,13.89.52,53,4.74,52.11,5.62-.44.44-39.71,3.94-59.11,5.26-8.8.61-31.55,2.43-50.56,4.06s-44,3.4-55.5,3.94-22.07.91-23.44.83l-14-.85c-6.33-.38-26.58-.76-45-.84-42.25-.18-45.88-1.24-16-4.63,7.42-.84,14.06-1.73,14.75-2q3.48-1.23-3.18-8.64c-5.58-6.2-8-13.13-7.27-20.52.71-6.94,3.71-11.68,9.53-15.1,9.7-5.71,25.52-2.49,33.49,6.82,3.75,4.38,4.21,4.6,5,2.43.93-2.42-1.14-6.52-5.14-10.18-3.69-3.38-3.71-3.45-3.64-11.18,0-6.51.56-8.82,3.1-14.21,5.83-12.3,18.64-21.89,30.38-22.74.72,0,1.44-.07,2.15-.07Zm1.08,56.93a21,21,0,0,0-8.07,1.94c-5.41,2.46-14.74,11.7-15.43,15.29a6.57,6.57,0,0,0,.72,4.41c1.12,1.53,1.39,1.4,2.8-1.32,3.2-6.19,14.62-14.36,20.08-14.36,5.94,0,11.6,5.19,11.6,10.68a16.48,16.48,0,0,0,1,4.81c1.22,3.2,2.69,2.5,3.8-1.79.65-2.54,1.64-3.49,4.81-4.6,4.81-1.69,11.4-.81,11.4,1.52,0,2.58,2.47.91,2.81-1.89.58-4.94-8.15-8-15.57-5.43L326,226.2l-2-3.36A15.07,15.07,0,0,0,310.19,215.5Zm545.9,10.81a31.16,31.16,0,0,0-14,3.21c-13.31,6.65-23.24,23.54-23.18,39.4,0,4.9,1.92,15.25,3.44,18.79.6,1.39.26,1.75-1.66,1.75-1.32,0-4.5,1.32-7,2.94-5,3.16-10.23,11-11.36,16.82-.34,1.79-.92,3.45-1.3,3.68s-10.56,3.41-22.63,7.06c-30.13,9.1-34.23,11.15-30.27,15.12,1.16,1.16,2.37,1.27,5.89.5,2.43-.54,9.37-1.44,15.42-2,13.09-1.24,88.26-3.69,89-2.9.29.3-.13,4.76-1,9.92-4,25.17-4.43,50.59-1.13,70.37.83,5,3.76,17.92,6.53,28.82,5.89,23.3,6.09,27.13,2.47,47.18-1.38,7.7-2.79,19-3.12,25-1.51,27.9,6.59,60,18.92,75,8,9.77,20.36,19.3,33.49,25.92,2.89,1.45,5.26,3.2,5.26,3.88s.87,9.56,1.92,19.73,2.43,30.2,3.05,44.5,2,42.23,3.08,62.07c2.33,43.27,2.49,77,.47,96.07-.81,7.62-2.39,22.63-3.51,33.36-2.1,20.1-2.73,23.74-6.12,35.25l-2,6.67,12.61-.15c-4-.19-5.53-.51-5.53-1.05a70.42,70.42,0,0,1,1.89-8.25c2.84-10.52,3.41-14.95,8.63-67.48,1.66-16.67,1.86-47.45.48-73.5-1.3-24.7-2.76-55.33-4-84.5-1.72-39.94-6.49-79.94-11.56-97-.9-3-1.84-6.62-2.09-8s-3.56-7.91-7.35-14.51c-12.38-21.53-12.6-25.15-.63-10.42,12.2,15,12.49,15.3,14.21,13.88,1.35-1.12,1.47-11.49,1.08-91.67-.27-54.75-.07-91.76.5-93.82.87-3.15,2.48-5.19,3.38-4.28,1.78,1.77,2.67,20.2,3.48,71.31,1.41,90.37,2,112.52,3,118.5a85.73,85.73,0,0,1,1,10.84c.06,6.67,2.64,44.13,4.59,66.66.8,9.35,1.91,30,2.46,46,1.37,40,2.89,66.65,6.5,113.5.78,10.18,1.69,23.45,2,29.5,1.59,28.64,4.13,49.56,7.15,59,.88,2.75,3.35,9.14,5.48,14.2s3.87,9.67,3.87,10.25c0,.22-.8.4-2.24.55h9.11l-3.52-8c-9.18-20.93-11.16-31.57-13.87-74.5-.85-13.48-2.2-32.61-3-42.5-2.62-32.7-4.45-65.55-5.56-99.92-1-30.69-1-34,.49-34.81,3.08-1.72,6.63-6.31,7.75-10,.63-2.09,1.78-3.75,2.58-3.75,2.65,0,14.75-7,21.79-12.56,13.43-10.65,24.26-22.3,28.26-30.4,3.56-7.18,3.69-7.82,3.65-18a60.75,60.75,0,0,0-3-20.54c-3.23-11.1-3.41-15.57-2.54-60.5.57-29.45.24-30.66-17.2-63-5.27-9.76-9-20.62-14.72-42.24-7.77-29.65-9.48-40.5-11.57-73.26-2.08-32.55-4.61-41.25-15.06-51.79-12.49-12.58-28.2-15.53-44.06-8.27l-5.36,2.45L897.49,260c-3.22-3.22-9.65-4.87-14.12-3.64l-3.49,1,0-4.17c-.09-9-6.84-21-13.86-24.62a22.58,22.58,0,0,0-9.88-2.19Zm-.09,6.17c6.6.1,11.93,4.37,16.42,13,2.55,4.89,4.56,13.83,3.28,14.61-1.74,1.08-6.81,9.7-6.81,11.58,0,2.94,1.66,2.12,7.23-3.61,6.15-6.32,10.27-7.65,16.12-5.21l3.67,1.53-10.37,10.3c-9,9-10.94,11.49-14.95,19.69a135.54,135.54,0,0,0-7.39,19.74l-2.81,10.36H840.3c-11,0-28.38.26-38.5.57l-18.41.56,8-2.92c14.2-5.2,14.43-5.33,15.11-9,.34-1.82,2.34-6,4.44-9.23,5.62-8.69,12.22-11.32,17.67-7,2.34,1.84,5.28,2.68,5.28,1.52a43.71,43.71,0,0,0-3.06-5.45,43.93,43.93,0,0,1-4.66-12.77c-3.94-19.2,4.54-38.65,20-45.84a22.82,22.82,0,0,1,9.84-2.44Zm66,29.78c8.06.09,15.78,3.33,22.31,9.68,9.4,9.13,12,18.25,13.56,48,1.7,31.9,3.33,42.59,11.07,72.5,6.15,23.8,9.85,34.58,15.63,45.5,17.8,33.63,17.85,33.81,16.67,67s-.85,41.31,2.16,53.13c5.08,20,5.16,27.22.39,37.07-5.45,11.25-31.8,34.18-44.09,38.36-6.11,2.07-7.63,3.44-8.39,7.48a10.37,10.37,0,0,1-2.41,4.94c-1.68,1.52-1.81,1.32-2.4-3.68-.78-6.66-3.1-37.44-5-66.8-1.61-24.56-2.76-75.78-3.13-139-.33-57.86-2.17-70-10.6-70-3,0-7.53,4.76-8.78,9.23-1.39,5-.71,152.51.79,168.77.48,5.23.79,9.6.7,9.72a64.38,64.38,0,0,1-5.12-6.37c-6.22-8.27-13-14.35-16.06-14.35-3.36,0-5.75,4-4.85,8.21,1,4.8,5.92,14.09,12.48,23.79l5.75,8.5,3,17.25c1.64,9.49,2.69,17.25,2.33,17.25a91.37,91.37,0,0,1-9.1-5.15c-11-6.72-25.34-21-29.34-29.29-8.1-16.76-11-31.11-11.08-54.56,0-15,.36-19.78,2.82-33.5,3.56-19.86,3.32-24-2.74-48.05-6.16-24.48-7.63-33.44-8.29-50.45C859,355.07,867.3,310.82,878,292.82c3.89-6.54,15.44-18.58,22.45-23.41s14.44-7.23,21.56-7.15ZM330.82,280c-2.29,0-2.5,8.86-1.54,64,.84,48.05-.17,103.48-2,111.84-.57,2.55-.4,2.8,1.75,2.5,3.14-.44,4.43-5.67,5.88-23.71,2.13-26.44.7-142.13-1.87-151.73-.42-1.59-1.41-2.9-2.2-2.9Zm37.95,30.69c-2.1,0-2.86,5.7-4.24,29.85-2.47,42.93-3,64.85-1.55,66.58,3.51,4.22,4.85-4.86,7-47.12,1.32-26.38,1-48.66-.73-49.23a1.41,1.41,0,0,0-.44-.08Zm-74.36,29a3.42,3.42,0,0,0-2.27,1.41c-1.19,1.56-1.35,4.56-.87,16.41.6,14.54,2.87,35.93,4.17,39.3h0c.38,1,1.2,1.61,1.82,1.4,1.29-.44,1.31-3.68.19-35.52-.66-18.63-1-22.42-2.32-22.91a1.7,1.7,0,0,0-.72-.1ZM192.89,367c-5.55,0-8.8.63-12.5,2.29-5.68,2.55-11.82,8.09-13.53,12.22-1,2.45-1.47,2.68-3.63,1.86a22.66,22.66,0,0,0-6.53-.94c-3.35,0-4.65.62-7.35,3.48-4.25,4.5-5.15,9.62-3,17,1.79,6.17,8.06,13.49,11.54,13.49,2.6,0,2.55-2.19-.1-4.59-5.78-5.23-8.2-17.2-4.34-21.47,1.59-1.76,2.73-2.05,6.36-1.64s5.11,1.26,8.1,4.6c5.78,6.45,7.61,5.27,4-2.6-1.91-4.2-1.91-4.21.29-7.47,8.06-12,27.73-14.09,38.7-4.18,6.43,5.81,8.79,18,5.56,28.69-1.77,5.91-.29,7.17,3.3,2.8,1.94-2.35,3.42-3.15,5.81-3.15,3.79,0,8.08,4,9,8.33.86,4.12,3.75,5.4,13.82,6.12,4.94.36,10.35.93,12,1.28l3,.62-3.49.9c-1.93.49-27.13,1.09-56,1.32-50.88.41-52.35.37-47.51-1.32,3.28-1.14,5.12-2.39,5.35-3.64.33-1.77-.13-1.85-7.13-1.22-11.91,1.08-22.38,3.17-25.21,5-3.13,2-3.07,5.51.12,7.1h0c2.77,1.37,113.47.84,125.37-.61,8.11-1,22.1-5,24.76-7.15a3.44,3.44,0,0,0-.51-5.59c-1-.49-9.34-1.22-18.63-1.61-18-.75-21.62-1.46-21.62-4.3,0-3.57-4.83-9.13-8.9-10.23-2.13-.57-4.49-.81-5.24-.52-1.06.41-1.37-1.06-1.43-6.74-.18-17.84-11.46-28.29-30.43-28.19Zm10.29,170.67a9.31,9.31,0,0,0-2,.19c-4.16,1-14.78,14.75-21.72,23.51-4.74,6-4.48,10-4.74,14.29l.56,20.78.72,26.75-15.82.47c-8.71.27-17,1-18.53,1.58-4.77,2-5.77,5.58-6,22-.38,22.8-.24,22.92,23.42,21.47,9-.55,16.47-.88,16.64-.73.5.43,2.48,77.53,2,78-.24.24-6.88.74-14.76,1.11-16.33.78-18.43,1.71-20.09,8.87-1.21,5.29-1.22,30.68,0,33.89.53,1.39,2.75,3.44,4.94,4.55,4.31,2.2,19.73,5.05,27.36,5.05h4.75l.18,28.75c.1,15.82.22,34.15.26,40.75s.23,19.43.41,28.5c.3,14.48.08,19-1.33,19.24-1.17.23-1.53.35-1.53-1.81s-1.7-8.24-6-13.54c-6.56-8-10-14.17-10-17.91,0-1.31,1.38-7.25,3.07-13.19,3.54-12.49,3.61-18.12.26-18.6-2.92-.41-9.69,5.78-13.41,12.27l-2.9,5v-4c0-5.42,1.69-24.28,3.56-39.54,1.72-14,1.12-18-2.67-18-7.46,0-19.19,15.64-24.76,33-2.37,7.41-5.1,22.27-5.21,28.38-.07,3.81-.29,3.45-2.87-4.61-4.57-14.23-7.69-16.85-12.44-10.47-1.78,2.4-2.06,4.12-2,12a74.88,74.88,0,0,0,2.13,16.7c1.1,4.13,1.88,7.63,1.73,7.79a20.26,20.26,0,0,1-4.85-1c-4.1-1.1-4.81-1-6.63.62a6,6,0,0,0-2,3.35c0,1.65,6.26,13.31,9.16,17.08a9.46,9.46,0,0,1,1.84,3.23c0,.14-.78.28-2,.42l9.19.46-5.18-9.05c-2.85-5-5-9.23-4.8-9.45s2.28.09,4.59.67c3.46.88,4.65,1.86,6.87,5.7a90.59,90.59,0,0,0,5.61,8.39l2.93,3.74h9.23l-4.14-4.25c-10-10.21-18.27-31.52-18.27-46.87,0-7.05,1.65-4.79,5.42,7.39,4.17,13.51,8.92,24.74,10.46,24.74,1.91,0,2.16-2,2.49-20.19.27-15,.74-19.86,2.56-26.81,2.81-10.69,9.8-25.13,15-31l4-4.5,0,3.49c0,1.93-.62,8.45-1.4,14.51-1.17,9-2,34.65-1.52,45.49a92.28,92.28,0,0,1-.6,9.24c-.52,4.85-.36,7.15.54,8.25,2.26,2.71,4,1.79,4-2.09,0-5.41,2.8-15.21,6.11-21.4s7.48-11.75,6.46-8.6c-2.11,6.46-4.57,17.5-4.57,20.47,0,3.52,1.18,8.12,3.5,13.63.69,1.65,4,6.11,7.38,9.9a37.43,37.43,0,0,1,6.12,11h0c0,.06-.18.11-.49.17a145.26,145.26,0,0,0,14.91,0,1.9,1.9,0,0,1-.94-.33c-.36-.57-1.05-39.9-1.53-83.46s-1.36-92.7-1.94-109.2-1.46-57.65-2-91.44L181,571.08l3.86-6.6c4.89-8.37,12-17,15.84-19.28l3-1.75,3,3.75c7.12,9,16.29,24.46,15.68,26.37-1.18,3.72,2.36,192.81,4.52,241.39.54,12.1,1.17,39.44,1.41,60.75l.44,42,7.44,0-.63-4.27c-.35-2.34-.87-23.68-1.16-43.47s-1-44.7-1.61-55.32-.85-19.54-.58-19.81c.47-.47,72.46-2.42,72.93-2h0l2-6.63-20.87.6c-11.48.34-28.36.82-37.52,1.07l-16.64.46-.47-3.7c-.26-2-.55-9.85-.65-17.36l-.18-13.64,11.8-.75c6.48-.4,20.36-.46,30.84-.11s25.18.17,32.87-.41,15.49-.85,15.72-.63a.08.08,0,0,1,0,.08,72.49,72.49,0,0,0,1.88-8.55c-.61,1.72-3.53,2-14.82,2.55-7,.37-24.65.62-39.23.55s-29.28.21-32.68.6l-6.18.71-.36-10.37c-.2-5.7-.46-22.07-.59-36.37s-.48-28.09-.82-30.65l-.6-4.64,10.37-.59c19.89-1.12,48.4-1.59,52.37-.86,2.47.46,3.66,1,6.24,4.39L290.58,657l-17.09.65v0c-9.39.36-23.27.91-30.83,1.23l-13.75.58V627.23l3.12.62c1.72.35,12,.64,22.75.64h19.63l-3.62-6.86a3.1,3.1,0,0,1,.1.36c0,.66-32.41.44-38.13-.26l-3.63-.45-.74-26.63L227.9,577c-.06-7.91-2-11.88-5.4-17.53-7.81-12.81-13.31-19.94-16.1-21.21a8.46,8.46,0,0,0-3.2-.59ZM175.89,629.3v16.08c0,8.84-.16,16.07-.35,16.07s-6.16.46-13.25,1-14,1.22-15.4,1.48c-5.33,1-6-.5-6-13.3,0-10.64,1-18.5,2.34-19.89.3-.29,7.76-.74,16.59-1ZM201,635.39c-1.93.05-3.78,1.22-5.52,3.5-3.6,4.71-3.44,8.69.46,12,9.1,7.65,19.17-3.59,11-12.31-2-2.17-4-3.23-6-3.17Zm1.11,5.75c1.16.1,1.75,1.57,1.75,4.39,0,1.88-2.88,2.71-4.33,1.26s-.63-4.29,1.23-5.28a2.47,2.47,0,0,1,1.35-.37ZM177.23,752.67a4.83,4.83,0,0,1,1.2.05c.1.13.49,9.35.85,20.49s.32,20.18-.11,20.09-5.28-.46-10.78-.82c-9.81-.66-12.23-1.1-17.75-3.21l-2.75-1.06V773.4c0-8.15.41-15.9.91-17.22.9-2.34,1.31-2.42,15.18-3,5.88-.27,11-.44,13.25-.45Zm29.94,7.23a11.28,11.28,0,0,0-9.27,4.26c-3.29,4.19-2.07,11,2.36,13.12s8.63,1.37,12.23-2.23c4-4,4.45-8,1.42-11.85a8.94,8.94,0,0,0-6.74-3.3Zm-.51,5.64A3.38,3.38,0,0,1,208.9,767c1,1.24.94,1.88-.53,3.5-2.14,2.37-3.79,2.52-5.49.47-1-1.25-.94-1.88.53-3.5,1.21-1.34,2.25-2,3.25-1.9Zm674.52,51.07c-1.2,0-2.56,1-4.28,2.82-6.57,7-11.92,29-12.74,52.34l-.56,15.81-3.94-7.26c-7.41-13.67-11.41-17.1-15.34-13.16-4.19,4.18.69,28.06,8.53,41.76l3.17,5.53h0s7.54,0,13.37-.22c-3.46-.27-4.4-.9-6.29-2.39-5.51-4.34-12.93-22.08-14.59-34.88-.65-5-.65-5,1.11-2.5,1,1.37,4.72,7.44,8.34,13.49,4.73,7.91,7.12,11,8.5,11,1.81,0,2-1.12,2.56-18,.69-19.75,2.73-34,6.49-45.38,5.18-15.58,5.31-15.24,5.13,12.88-.24,38,1.32,40.95,13.23,24.46,3.58-5,7.33-10.15,8.31-11.5,1.76-2.41,1.78-2.27,1.33,7.54A181.91,181.91,0,0,1,900,893.36c-1.69,7.93-3.08,15.91-3.08,17.75v3.33a15.89,15.89,0,0,0,5-.55.72.72,0,0,1-.37-.19c-.25-.41,1.06-7.48,2.91-15.7,6.47-28.67,6.55-45.39.22-45.53-2-.05-8.47,7.23-13,14.63-2.81,4.6-5.31,8.36-5.55,8.36s-.29-12.06-.1-26.79c.32-24.31.19-27-1.42-29.5-1.14-1.74-2.21-2.6-3.42-2.56Z" class="cls-5" id="path1736"></path><path d="M536.58,537.55c-1.78,0-3.71.79-6.09,2.4-2,1.32-5.81,5-6.11,5.1l-.27.44a73.46,73.46,0,0,0-4.71,13.09c3.15-5.65,10.65-11.2,14.35-13.39l3-1.75,2.95,3.76c7.12,9,16.29,24.46,15.69,26.37-1.19,3.72,2.35,192.81,4.51,241.38.54,12.1,1.18,39.44,1.42,60.75l.44,40.84h7.42l-.68-5.11c-.61-4.59-2.75-88.13-3-115.44l-.09-11,52.5-.14c28.88-.08,53.24-.46,54.14-.84.18-.08,3.49-.12,3.64-.11l-2.18-6.74-12.55.8c-13.09.83-95.87,1.32-96.62.57-.24-.23-.43-7.17-.43-15.42v-15l16.25.74c14.55.66,47.15,1.44,68,1.72a40.92,40.92,0,0,1-4.44-7.15L615,743.24c-15.76-.11-33.71-.35-39.9-.53l-11.25-.32,0-5.72c0-3.14-.23-8.19-.46-11.21s-.66-20.27-.94-38.32l-.52-32.81,39.59.21,41.09.2.85-8.15a2.73,2.73,0,0,1-.15.3c-.51.53-19.29,1.1-41.9,1.32l-39.52.38V622h42.49c37.28,0,42.43.18,42.07,1.5,0,0,0,.11,0,.13a20.88,20.88,0,0,0,3.22-11.75v-.17c-1,3.21-3.69,2.79-6.85,3.21-2.76.36-22,.89-42.79,1.18l-37.79.52-.66-16.72c-.36-9.2-.66-20-.66-24,0-6.57-.35-7.9-3.65-13.59C551.88,553,543.1,540.71,540.62,539a7,7,0,0,0-4-1.42Zm-21.4,31.1v0h0Zm0,0L507.6,580l.64,16.88c.73,19.07,1.19,18.42-2.88,19.19s-68.9,1.17-68.9.42c0,0,.08-.45.1-.52l-.18.06-1.2,7h73.71v26.5H491.64c-9.49,0-23.55.44-31.25,1-25.61,1.76-32.93,1.77-33.65,1.23-1.09,2.29-.29,6-.74,8.48a1.54,1.54,0,0,0,.08-.19c1.05-2.3,1.35-2.34,16.07-2.44,8.24,0,15.43-.36,16-.69s12.13-.68,25.75-.77l24.76-.16.64,22.53c.36,12.4.93,32.1,1.28,43.78l.63,21.25h-4.39c-2.42,0-6.64.19-9.4.4-7,.55-51.93-1.29-52.78-2.18a.25.25,0,0,1-.05-.08s-.12.68-.12.68,1.11,3.52,2.49,7.25a1,1,0,0,1,.13-.73,5.64,5.64,0,0,1,1.64-.11c3,0,11.74.23,19.28.68,10,.59,24,1.07,31,1.07h12.77l.3,14.75c.17,8.11.07,15.06-.2,15.43s-11.85.83-25.72,1l-27.37.32a65.44,65.44,0,0,0,4.67,8.27,6.3,6.3,0,0,1-.72-1.52c0-1,7.51-1.25,25.67-1.25,17.95,0,23.63.3,23.93,1.25.22.69.65,28.56.95,61.94s.67,63.36.82,64.08-1.68,1.11-7.52,1.35h16.62c-1.7-.16-2.72-.35-2.86-.58-.35-.57-1-38.54-1.52-81.83S517.49,741,516.9,724s-1.46-57.33-1.93-89.5c-.67-45.71-.74-61.71.21-65.78Zm20.89,67.73a10.11,10.11,0,0,0-3.67,1c-7.35,3-8.85,8.94-3.43,13.51,8.59,7.22,18.85-3,11.67-11.61C539,637.28,537.74,636.39,536.07,636.41Zm-.93,4.74c1.16.1,1.75,1.57,1.75,4.4,0,1.87-2.87,2.7-4.33,1.25s-.63-4.29,1.23-5.28a2.51,2.51,0,0,1,1.35-.37Zm5.38,118.76a11.25,11.25,0,0,0-9.26,4.26c-3.29,4.19-2.08,11,2.35,13.12s8.63,1.38,12.23-2.22c4-4,4.45-8,1.42-11.86a8.94,8.94,0,0,0-6.74-3.3Zm-.51,5.64a3.38,3.38,0,0,1,2.25,1.43c1,1.25.93,1.88-.54,3.5-2.14,2.38-3.79,2.52-5.49.47-1-1.25-.94-1.88.53-3.5C538,766.11,539,765.48,540,765.55Z" class="cls-5" id="path1701"></path><path d="M748.83,747.71a3.87,3.87,0,0,1,.06.48c0,.56-3.39,1.52-7.54,2.14a103,103,0,0,1-11.6,1.12c-3.13,0-3.83-.22-3.52-1.35a15.77,15.77,0,0,0-2.3,7.63l8.73-.7c4.8-.38,9.69-.92,10.85-1.21a5.8,5.8,0,0,1,.69-.13c1.39-.1,1.51,1.43,1.92,11.44.27,6.5.39,12,.26,12.11-.47.59-10.32.91-17,.53l-7-.39-.11,5.45h0c.08-.07,4.19.21,9.15.62a77.09,77.09,0,0,0,12.06.28l3.07-.48,1.18,29.85c.64,16.42,1.39,45.49,1.6,64.61l.42,39.57s6.09.51,8.68-.15c-1.29-.18-1.51-1-1.94-3.25-.36-1.92-1.05-30.28-1.54-57.12s-1.11-49.48-1.38-50.31c-.62-1.87-1.39-44.47-.64-44.47h0s-3-10.48-4.08-16.27Z" class="cls-5" id="path1772"></path><path d="M681.13,829.23s12.88,6.73,21.3,7.29,9-3.69,9-4.35v-8.34l-29.07-2-.86,7.58Z" class="cls-8" id="path1458"></path><path d="M769.86,823.17l25.57-3.6.38,7.58s-5.87,5.3-15.44,3S769.86,823.17,769.86,823.17Z" class="cls-8" id="path1460"></path><path d="M425,586.11l-20.35,9.38,1.07-14.07h21.83Z" class="cls-8" id="path1549"></path><path d="M425,586.11l.81,8.84,13.52-3.48-1.74-3.75Z" class="cls-8" id="path1551"></path><path d="M508.47,445a7.55,7.55,0,1,1-7.55-7.55A7.55,7.55,0,0,1,508.47,445Z" class="cls-9" id="path7004-5-5-1-7-6-4"></path><path d="M681.77,344.5a7.55,7.55,0,1,1-7.55-7.54A7.55,7.55,0,0,1,681.77,344.5Z" class="cls-9" id="path7004-5-5-1-7-6-7"></path><path d="M646.1,265.43c-4.7.11-8.82,1.16-11.81,3.14-4.75,3.14-8.82,8.77-11.18,15.5a47.81,47.81,0,0,1-5.35,9.93c-5.33,7.36-8.88,13.86-8.88,16.26,0,2.89,5.42,8.86,9.32,10.26,3.12,1.13,3.17,1.26,2.87,6.79-.4,7.42,3.39,15.19,9.74,20a19,19,0,0,1,6.65,8.77,60,60,0,0,0,3.89,8c.93,1.41,1.54,2.69,1.36,2.84s-6,1-12.83,2-20.55,3.26-30.38,5.18-22,3.7-27.08,4.08c-7.89.61-15.37-7.17-24.95-7.17l-26-.08c-21.64-.07-28.34-.45-39.55-2.25-30.39-4.88-48.48-1.83-60.49,10.18-4.16,4.16-5.61,6.4-6.09,9.4-.54,3.38-1.22,4.24-4.78,6-14.28,7-22.2,19.06-18.16,27.58l1.67,3.51-4.54,6.77c-9.74,14.52-20.52,23-40,31.57-19.68,8.63-24.05,12.91-24.22,23.79-.06,3.64-.7,7.73-1.43,9.08a23.1,23.1,0,0,0-1.92,5.95c-.51,3.1-2.19,4.71-15.06,14.44a289.48,289.48,0,0,0-24.56,21c-8.37,8.35-10.79,11.5-14.27,18.56a67.94,67.94,0,0,0,.85,61,37.64,37.64,0,0,1,1.89,4.15l3.62,6.86,8.09,14.23L290.57,657l7.07,11.65c1.32,1.74,3,4.19,5.44,7.85,4.23,6.33,10.52,16.43,14,22.47l6.32,11-.13,15.61c0,5.35-.19,10.44-.39,13.8-.11,2-2.47,13.85-2.92,15.34a230.1,230.1,0,0,1-9,23.39l-3.79,8.2s-5.08,11.86-7.23,17.95c-5.24,14.89-5.76,26.53-6.8,37.7a15,15,0,0,0,5,13,30.89,30.89,0,0,0,10.19,6c3.1,1,5.63,2.29,5.63,2.74a23.42,23.42,0,0,1-1.51,4.44,89.19,89.19,0,0,0-3.08,9.72c-.86,3.35-2.57,7.23-3.81,8.6-3.1,3.44-7.48,13.8-9,21.28L295.22,914l-29.53.27-29.53.26-7.43,0H208.37c-10.78,0-17.7-.26-20.06-.73a141.7,141.7,0,0,1-14.91,0c-2.09.39-10.87.68-21.31.68h-41l-9.2-.46c-2.89.31-8.6.58-15.2.68L69.4,915c-4.75,0-6.25,5,0,5l20.48.5c11.27.28,223.48.65,471.56.83,403.56.29,451.2.16,452.34-1.2a4.64,4.64,0,0,0,.92-3.33c-.32-1.64-2.11-1.84-20.14-2.3l-19.8-.5h-9.11c-3.15.33-9.66.5-19.75.5-7.87,0-13.06-.07-16.47-.23l-12.62.16,0,.07h-7.4a35.61,35.61,0,0,1-7.49-.56,15.89,15.89,0,0,1-5,.55H881.64c-6.15,0-9.81,0-12.25-.21-5.83.25-13.37.22-13.37.22H811.91L810,910.7c-2.45-4.82-8.78-23.56-9.71-28.74-.4-2.21-.65-17.51-.57-34,.12-26.71.32-30,1.75-30.34s1.52-1.35,1-6.5c-.58-6.21-1-31.83-.75-47.77l.12-8.62,5.75,1.35c7.85,1.85,13.06,1.73,26.85-.63s24.58-5.38,29-8.11c4.67-2.84,7-8.79,7.76-19.88,1.1-15.7-1.72-36.39-8-58.5-1.39-5-7.22-23.4-12.94-41-14.13-43.44-18.49-60.8-18.49-73.53,0-4.57.19-4.89,4.31-7.3A38.67,38.67,0,0,0,854.64,517c.58-9.3-1.38-16.55-9.06-33.52-15.54-34.39-46.36-91.78-51.17-95.3-2.88-2.1-18.85-6-33.66-8.21-9.14-1.36-17.74-2.9-19.1-3.42s-4.17-3.23-6.22-6-4.16-5.08-4.68-5.08a22,22,0,0,0-4.53,1.5c-5,2.08-5.09,2-5.86-2.75-.81-5-3.93-12.56-5.83-14.14-.72-.61-1.83-4.82-2.45-9.35s-1.68-9.26-2.35-10.5c-1.09-2-1.74-7.65-1.7-14.76.09-15.6-2.24-28.82-6-34-3.27-4.5-7.87-6.19-15.36-5.63-6,.45-7.24.2-12-2.36a103.45,103.45,0,0,0-13.27-5.54,45.7,45.7,0,0,0-15.32-2.5Zm.16,5.42c5.3,0,12.09,1.75,21.13,5.1s15.21,5,20.37,5.44c10.47.9,11.68,2.73,14.36,21.58l1.27,9-4,1c-3.19.8-4.64,2-7.15,5.84l-3.16,4.83-2.2-9.68-1.41-6.18c-.44-2.68-2.09-4.07-5.38-3.72-2,.22-7,1.91-12.21,2.87-8,1.48-10.57,1.81-16.17.57-4.66-1-8.6,0-11.57,3.89-4.14,5.37-5.1,5.08-10.33,5.08-7.15,0-12.52-1.58-14.36-4.2-1.36-1.95-1.2-2.65,2.11-8.71a100.26,100.26,0,0,1,6.27-10.09,35.7,35.7,0,0,0,4-7,54.85,54.85,0,0,1,3.65-7.14c3.54-5.72,7.91-8.49,14.73-8.46Zm34.34,37.91c1.39-.12,1.29.92,1.31,3.33,0,5.26,2.34,14.73,4.37,17.82,2.92,4.46,7.61,2.38,7.61-3.38,0-3,5.29-8.57,7.34-7.78,3.11,1.19,1.81,7.56-2.5,12.3-1.7,1.87-1.74,2.24-.37,3.38a6.07,6.07,0,0,1,1.53,4.13,30.32,30.32,0,0,0,2,8.09l2,5.23-2.74,2.86-2.73,2.87-.5-4.33c-.4-3.49-.88-4.33-2.5-4.33s-2.06.84-2.5,7c-.4,5.64-1.24,8.36-4.3,14-2.1,3.85-4.94,8-6.31,9.25-2.86,2.58-10.46,3-16.19.95-5.21-1.89-11.69-7.67-16.14-14.38-7.27-11-14.06-29.77-14.06-38.93,0-4.49.25-5,3-6.24a14.14,14.14,0,0,0,5.25-5.2c1.92-3.34,2.56-3.77,4.73-3.16,4.76,1.35,20.28.6,25-1.2,3.65-1.39,5.63-2.19,6.71-2.28Zm-55.75,12.92h0a1.89,1.89,0,0,1,.65.18,11.26,11.26,0,0,0,3.39.6c1.62,0,1.89,1,2.18,8.25.19,4.53.25,8.4.15,8.59-.42.76-4.21-7.67-5.69-12.69-1.17-3.92-1.39-5-.68-4.93Zm80.41,10.15c.66.12,1,2.08,1.65,7.28a41.85,41.85,0,0,1,.56,7.1c-.16.16-1.21-2.54-2.34-6-1.48-4.49-1.76-6.63-1-7.54C704.6,332.1,705,331.77,705.26,331.83ZM655,339c-2,0-2.74.94-4.37,5.22-1.09,2.87-1.71,5.9-1.39,6.75s1.81,1.53,3.6,1.53c4.42,0,6.6-3.72,5.43-9.28C657.53,339.64,657,339,655,339Zm56.06,16.82c1.42,0,2,1.42,4,7.59l2.62,8L711.36,376c-5.47,4-9.3,7.92-15.38,15.71-1.13,1.45-1.16,2.52-.19,5.77,1.1,3.69,1,4.22-1.44,7.42-3.77,4.95-8.65,21-7.87,25.86,1.16,7.23,10.79,14.59,21.28,16.27,4.3.69,4.77,1.33,3.18,4.31-.7,1.32-.33,2.69,1.45,5.31,1.32,1.94,3.1,3.8,3.94,4.12,1.21.47,1.33,1.14.55,3.19-2.32,6.1-1.38,8.43,8.28,20.55,5.08,6.37,13.28,17.39,18.23,24.5a194.57,194.57,0,0,0,17.18,21.17l8.18,8.25,2.07,18.31c1.14,10.08,2.07,20.82,2.07,23.87v5.56l-8.25,3.11a103.45,103.45,0,0,1-13.54,4.11c-9.84,1.87-23.33,2.15-28.79.61-9-2.55-16.42-6.45-17.46-9.18-1.93-5.09-1-17.5,2.46-32.39l3.36-14.5,3.59,7.75c2.36,5.09,4.15,7.75,5.24,7.75,4.37,0-2.19-16.6-20.94-53-13.58-26.37-15.74-31-20.84-44.5-4.56-12.09-5.61-18.57-4.73-29.17,1.07-12.86,4.76-27.48,7.1-28.09,2-.53,2.29-3.06.88-8-.87-3-.72-3.34,2.79-5.3C688,383,691.9,377.27,694.29,370c1.12-3.45,2.63-5.7,4.87-7.24,1.78-1.23,4.36-3.12,5.73-4.2a15.77,15.77,0,0,1,5-2.57,4.5,4.5,0,0,1,1.15-.17Zm17.81,15.44,4.54,5.05c4.05,4.5,5.26,5.21,11.26,6.57,3.7.84,10.1,2,14.22,2.63,11.12,1.63,28.2,5,30.61,6,2.94,1.22,17.22,26.93,41.38,74.54,13.06,25.72,18,39.05,18,48.42,0,14.79-9.7,27-24.93,31.49-5.71,1.67-17.67,1.95-24.58.58-10.31-2.06-25.68-11.29-36.06-21.67a181.29,181.29,0,0,1-15.09-18.63c-12.18-17.16-17-23.36-23.13-29.86l-5.37-5.68,1.94-4.32a70,70,0,0,1,6.65-10.57c4.61-6.09,14.17-15.26,15.9-15.26.49,0,2.22-1.13,3.86-2.51l3-2.51,6.74,6.59c14.65,14.31,38.1,29.43,45.65,29.43,5.14,0,4.32-2.51-1.83-5.62-9.66-4.9-9.91-5.16-8.22-8.43a15.27,15.27,0,0,0,1.47-5.9c0-4.64-2.75-3.85-5.1,1.45-1.09,2.48-2.25,4.5-2.56,4.5-1.58,0-26.28-19.18-33.14-25.73-1.06-1-2.05-.93-5,.35-6.11,2.64-7,2.71-7.62.62-.34-1.07-2.1-2.74-3.92-3.72-2.66-1.44-3.72-1.56-5.48-.61-2,1.08-2.17.94-2.17-1.93a85.84,85.84,0,0,0-1.16-10.09c-1-6.17-1.5-7.18-4.05-8.49a7.75,7.75,0,0,0-4.85-.88c-1.34.43-3.26-.46-6.2-2.85a40,40,0,0,0-7.9-5c-2.15-.89-4-2.46-4.39-3.83-.63-2,.2-3.18,5.65-8.12a140.71,140.71,0,0,1,14.13-10.89Zm-272.24,1.34h0A187,187,0,0,1,483.89,375c17,2.51,20.1,2.69,38,2.14,34.35-1.05,39.94,2.06,41,22.83.52,9.85.59,10.1,5,16.5,5.64,8.25,6,13.6,1.54,21.8a62.74,62.74,0,0,1-6.06,9l-3.18,3.67L559,444.34a116.76,116.76,0,0,1-1.14-16.16c0-10.38-1.16-12.93-3.93-8.65-3.45,5.34-10.55,12-15.37,14.38-5.88,2.93-14.11,2.49-19.59.2-4.33-1.81-10.15-8.1-14.21-14.88-2-3.37-4-5.74.64-8.41s4.57-4.42,3.21-4.94a5,5,0,0,0-3.13-.09c-.89.34-1.7-.23-2.09-1.46-1-3.07-12.88-8.73-20.13-1.48-2.94,2.94-3.39,4.06-3.39,8.25,0,5.32,2,9.19,6.64,12.89l2.82,2.25-2.49,2.1c-3.81,3.21-12.26,5.4-17.87,4.63-6.33-.87-14.07-5.41-18.53-10.86l-3.62-4.4.26-11.07c.24-9.89,0-11.36-1.82-13.87-3.22-4.33-6.16-5.49-12.4-4.88-3,.29-6.74.81-8.25,1.16-4.18,1-3.47-1.28,2.12-6.66,6.94-6.69,15.69-9.81,29.87-9.84Zm183,1.57c6.92-.06,10.77,1.73,15.91,6.13l3.18,2.72-8.65,6.49c-9.85,7.4-13.07,11.78-11.38,15.5.6,1.31,4.67,4.89,9,8l8,5.58,1.13,6.73a104.58,104.58,0,0,1,.84,16.47l-.3,9.75-2.53-4.25c-1.4-2.33-3.87-6.86-5.5-10.06-4-7.8-10.07-14.48-11.7-12.85-.94.94-.48,2.52,2.08,7.19,1.81,3.28,3,6,2.69,6a28.2,28.2,0,0,1-4.32-1.61c-7.18-3.1-32.25-3-55.34.2l-4.63.64.45-6.87c.48-7.31.07-8.46-7-19.75-2.18-3.47-3-6.38-3.69-13-.48-4.68-1.34-9.38-1.91-10.44-1-1.83-.52-2,8.12-2.66a90.72,90.72,0,0,0,15.21-2.52,153.87,153.87,0,0,1,18.07-3.4c6.6-.87,15.82-2.14,20.5-2.82a87.45,87.45,0,0,1,11.76-1.13Zm27,12.72a20.63,20.63,0,0,1,2.87.35c5.86,1,6.93,3.57,4.12,10-4,9.13-5.79,19.11-5.77,32.19,0,20.64,2,26.47,24.28,70.91l14.19,28.32-3.75,14.68c-3.3,12.88-3.75,16.09-3.72,26.18.05,13.25,1.07,18.84,3.89,21.12,1.53,1.24,1.93,2.62,1.72,6C704.14,602.85,694.93,646,688,674c-8.38,33.82-13.16,54.72-14.51,63.41l-1.17,7.5-6.46.09c-9.06.13-14.2-.55-15.54-1.66-2.91-2.41-7.83-34-7-53.93.74-17,2.49-30.55,8.57-66,6-35,8.76-54.79,10-71.5,1.92-26.91,2.87-73.1,1.86-90.5-.52-9.07-1.08-22.47-1.24-29.77-.33-15.28,0-14.61-11.89-23.44l-6.8-5.05,2.29-2.47a109.7,109.7,0,0,1,10.5-8.4c6.07-4.39,7.69-5.52,10.1-5.48Zm-232.33,6.27c2.35.06,4.23.6,5.35,1.73,1.48,1.49,1.65,3.74,1.37,17.91-.18,8.91-.69,16.57-1.13,17-1.13,1.17-4.14-3.54-8.11-12.7-1.87-4.33-4-8.1-4.77-8.39-1.8-.69-3,1.32-2.43,4.17.38,2-.31,2.56-5.4,4.46-7,2.61-14.71,3.91-18.83,3.16-4.35-.78-4.45-4.39-.3-10.58,5.7-8.5,23.09-16.5,33.22-16.79Zm269.73,11.57c1.48.08,3.11,1.32,5.36,3.47,3.49,3.35,5.24,4.31,7.89,4.31,6.13,0,6.56.52,6.56,8,0,3.75.4,7.87.88,9.14.75,2,.07,3.19-4.75,8.38-5.31,5.73-5.77,6-8.13,4.83a43,43,0,0,0-6.71-2.35,29.17,29.17,0,0,1-8.5-4.4c-4.23-3.25-4.29-3.38-4.2-9.22.08-4.57.81-7.29,3.23-11.92,3.83-7.35,5.9-10.42,8.37-10.28Zm-209.27.17a6.77,6.77,0,0,1,4.13,1.38l2.33,1.89L499,411.2c-2.82,3.81-2.41,5.8,2.84,13.92,11.65,18,31.58,22.24,47.36,8.38l3.7-3.25v2.62c0,1.55-2.73,6.78-6.72,12.85C534.06,464.14,519,476.53,505,479.53c-4.29.92-5.6.79-9.47-.92-6.15-2.72-8.62-7.61-8.62-17.06,0-7.42-1.05-9.26-3.84-6.74-1.52,1.37-2.19,1.39-5.69.15-5-1.77-16.15-1.89-19.46-.22-3.16,1.6-3.94,4.71-1.19,4.71,1.94,0,1.94.14-.26,8.76a80.52,80.52,0,0,1-3.39,10.93c-1.18,2.19-4.82,4-5.9,2.91-.32-.31.62-7.89,2.09-16.84,3.08-18.71,3.36-24.76,1.17-24.76-.92,0-2,2-3,5.25-2.41,8.51-7.52,40.81-8.62,54.54-1.19,14.84-1.66,16.82-7.64,32.57l-4.5,11.86,1.64,6.53a57.27,57.27,0,0,0,3.07,9.29c1.29,2.5,1.24,3-.6,5.34-1.21,1.52-4.12,3.2-7.16,4.1a17.31,17.31,0,0,1-8.88.14c-6.21-2.22-9.74-5.35-10.48-9.32-.38-2-.18-7.93.45-13.21,1.37-11.6.94-87.1-.52-91.59-.54-1.65-1.62-3-2.41-3-1.21,0-1.43,6.21-1.5,41.26-.07,39.49-.16,41.33-2,42.78-5,3.89-8,4.9-14.59,4.82-6.23-.09-7.14-.4-13.91-4.9-8.33-5.54-23.66-20.48-29.23-28.49-11.19-16.09-12.29-19-9.28-24.77,2.62-5,7.23-8.26,19.66-13.81,13-5.81,22.39-11.52,30.14-18.34,4.9-4.31,14.35-16.31,17.17-21.8,1.52-3,2.08-3.26,6.39-3.26A49.05,49.05,0,0,0,423,422.06a11.51,11.51,0,0,1,3.39-1.36c.09.14,1.39,2.83,2.9,6s3.9,6.64,5.32,7.75c5,4,10.59,1.83,11.86-4.55l.59-2.94,4.33,4.15c11.44,11,29.86,11.11,40.64.33,2.69-2.68,4.87-5.68,4.87-6.67s-1.69-2.76-4-4.1a15.2,15.2,0,0,1-5.71-5.82c-1.5-3.16-1.52-3.79-.17-6.2,1.2-2.16,4.25-3.64,7.19-3.77a4.85,4.85,0,0,1,.66,0Zm238.74,27.53L736.2,435l2.66,2.65-3.78,2.73c-4,2.87-14.19,13.85-14.19,15.23s-1.64.86-3.46-1.16-1.61-2.16,3.26-8.25a132.68,132.68,0,0,1,8.95-10.07ZM633,439.19l6.46,3.27c6.47,3.29,10,6.94,17,17.78l2.79,4.29-.69,29.21c-1.15,49.35-2.8,72.21-7.18,99.71-1.64,10.36-6.09,36.37-7,42-.84,5.24-3.25,19.29-3.25,19.29l-.6,4.6a280.73,280.73,0,0,0-2.61,37.27c0,14.1,2.16,34.79,4.47,42.47l1.32,4.37c1.66,3.28,2.38,7.13,4.44,7.16,1.37,0,2.7,0,4,0,6,.07,10.67.08,13,0,6.74-.17,7.76,0,7.82,1.54,0,.95.18,7,.3,13.35,0,0,.48,21.52.78,35.42.38,17.12.46,17.73,2.74,19.58a7.92,7.92,0,0,1,2.68,5.64c.18,2.06,1.25,11.6,2.37,21.19s2.34,22.25,2.69,28.12l.65,10.66L675,891.88c-12,6.75-17.67,9.32-33.65,15.31-6.6,2.48-12.71,5.12-13.58,5.89-1.27,1.11-7.22,1.38-30.12,1.38H541.36c-8.67,0-14.82-.16-18.15-.47H506.59c-2.51.1-5.68.18-9.89.25l-17.67.27-.32-2.27c-.27-1.9-1.82-2.77-9.35-5.27a74.84,74.84,0,0,1-17.59-8.72c-10.9-7.26-11.86-8.34-8-9.11,5.41-1.08,12.14-9.91,12.14-15.92,0-3.58-2.74-6.75-5.83-6.75-3.55,0-6.38,2.06-11.19,8.14-3.63,4.59-4,4.79-4.45,2.65-.57-2.45-3.53-22.23-3.53-23.59,0-.67,14.3-.62,49,.14,4.9.11,9.74-3.68,11.08-8.68,2.52-9.34-1-18.07-15.94-40.19-4.28-6.32-7.94-12.05-9.43-14.71a65.44,65.44,0,0,1-4.67-8.27L456,769.47c-4.89-12.49-6.85-18-7-19.93-1.39-3.72-2.48-7.25-2.48-7.25s.11-.65.11-.67c-1.21-2-13.13-46.31-12.94-48.14.09-.83.42-3.79.73-6.59.53-4.67.17-5.85-4.46-14.83-4.13-8-4.81-10-4-11.9.44-2.52,4.42-15.49,6.26-23.19l3.35-14,1.38-7c.13-.89.9-5,1.91-10.25a119.6,119.6,0,0,0,2-12.94c0-1.74,1.08-3.54,3.17-5.28,2.46-2.05,3.54-6.89,3.94-9.05a59.57,59.57,0,0,1,6,5.4c7.77,7.59,14.63,10.57,26.12,11.38,9.54.68,16.11.49,22.18-5.73,16.53-16.94,19.71-29.89,23.55-44.86.14-.57.69-2.94,1-4.33,1.65-6.84,7.83-28.1,11.65-39.75,5.7-17.41,11-28.13,17.39-35.47a102.61,102.61,0,0,0,7.54-9.66,20.84,20.84,0,0,1,3.46-4.43,42.6,42.6,0,0,0,5-5.63l3.92-5,28.57-.59Zm-79.7,6.24,1.34,3.19a23.05,23.05,0,0,0,2.34,4.39c.7.85-.64,2.84-4.63,6.89-10,10.2-17.29,28.24-30.5,75.79-6.23,22.43-9.73,32-14.29,39.14-3.69,5.76-10.18,11.17-15.94,13.3-6.07,2.24-19.05,1.09-27.74-2.44a23.24,23.24,0,0,1-11.14-10.94c-1.88-4.24-1.87-4.37.67-20.53,1.4-8.94,3.21-20.57,4-25.84s2.34-11.56,3.41-14c2.93-6.62,4.24-19.47,3.9-38.18l-.31-16.75H468a31.3,31.3,0,0,1,8.18,1.57c4.28,1.46,4.64,1.86,5.25,5.75,1.15,7.47,2.55,10.49,6.5,14.06,7.4,6.69,16.53,6.93,28.69.77,10.45-5.29,24.2-17.9,32.06-29.4Zm-26.68,6a5.35,5.35,0,0,0-4.13,2.22c-1.56,2.23-2.15,8.86-.89,10.12a4.38,4.38,0,0,0,2.52.66c2.06,0,3.71-3.36,4.54-9.25.5-3.5.36-3.75-2-3.75ZM460.07,479l-.65,11.5c-1,17.93-3.77,26.13-10.11,30.05-3.51,2.17-4.31,2.31-6.26,1.07-1.08-.69-1.14-1.94-.31-6.24.57-3,1.32-9.65,1.67-14.88.78-11.89,1.07-12.92,3.4-12.31,2.71.71,7.87-2.31,10.21-6Zm-131.73,21.5c.25,0,2.43,3,4.84,6.75,10,15.43,24.7,29.61,37.1,35.81,5.72,2.86,6.39,3.44,4,3.44-6.74,0-25-11.44-33.72-21.08-6.88-7.6-12.67-17.49-12.67-21.64,0-1.81.2-3.27.46-3.27Zm-5.1,11.62c.61-.13,10.9,14.52,10.44,14.86-.16.12-2.68,1.5-5.61,3.07a50,50,0,0,0-10.57,8.51c-8.94,9.65-17.57,29.14-16,36.19.66,3.06,3.44,3.8,3.44.91,0-3.41,3.83-13,8.11-20.37,5.31-9.1,12.62-16.92,19.5-20.86l5.3-3,5.59,4.56c3.08,2.51,6.65,5.25,7.94,6.09,2.28,1.49,2.3,1.65.87,6.24-4.49,14.43,3.21,42.54,12.28,44.82,3.77.94,3.91-.1.58-4.3-5.3-6.66-7.62-15.2-7.65-28,0-13.35.52-14.34,6.32-11.38a19.07,19.07,0,0,0,5.73,2.08c1.26,0,1.49.54.94,2.25-1.66,5.24-1.7,20.27-.07,27.25,3.29,14.1,15.69,42.46,23.7,54.18,2.77,4,2.11,4.59,2.85,16.77.42,6.74,1.21,13.06,4.11,17.06,2,2.7,7.11,6.45,10.75,8.87a80.2,80.2,0,0,1,10.9,8.82c4.21,4.35,4.35,4.72,11.19,30.35,13.92,52.16,21.38,70,40.2,96.14,7.3,10.14,11.47,19.09,12.32,26.44.79,6.9-.68,8.87-6.61,8.87h-4l2.06-2.9c2.26-3.17,2.72-6.1.95-6.1-.61,0-2.64,1.34-4.5,3-6.12,5.37-12.12,6.36-30.69,5.07-15.1-1-16.34-1.28-18.33-3.51-6.68-7.46-22.25-43.83-28-65.29-.79-3-2.4-.89-2.4,3.08,0,10.07,15.12,50.5,23.13,61.83a14,14,0,0,1,1.87,3.17c0,.28-2.36,1-5.25,1.62s-10.79,2.72-17.56,4.68c-10.64,3.09-13.43,3.53-20.57,3.22-6.79-.28-8.94-.79-12-2.85-5.92-4-7.43-8-9.18-24.73-1.53-14.67-3.7-26.5-5.35-29.14-1.76-2.84-3.32,0-2.68,4.84.34,2.59,1.47,12.82,2.51,22.73,2,18.65,3,22.32,7.8,27.46,3,3.21,2.87,3.27-9.69,4.81a94.75,94.75,0,0,1-10.5.87c-8.8-.73-9.61-1-9.09-2.65,2.27-7.19,3.31-21.82,1.93-27-1.16-4.32-2.86-1.54-3.52,5.73-.79,8.71-2.69,19.19-3.81,21-2,3.21-22.94-5-24.75-9.65-1.13-3,1.5-23.46,4.21-32.81a202.89,202.89,0,0,1,7.17-19.5c2.5-5.77,6.76-15.57,9.44-21.78,6.18-14.24,8.85-24.51,9.74-37.48l.7-10.23,3.25,9.57c1.79,5.27,4.78,15.78,6.64,23.36,3.18,13,4.7,16.76,6.15,15.32.91-.92-2.31-19.6-5.57-32.31-6.52-25.44-15.07-43.26-35-72.94-7.45-11.11-24.11-38.47-27.15-44.59-12.75-25.69-14-46.15-4.18-65.91,4.81-9.64,16.67-21.65,35.45-35.9,7.51-5.71,13.9-10.42,14.2-10.49ZM447.85,526h0c4,0,4,.3,3.61,2.45-.27,1.37-.78,5.2-1.14,8.5s-1.51,10.7-2.54,16.44a118.56,118.56,0,0,0-1.89,14.75c0,2.37-.41,4.31-.92,4.31a9,9,0,0,0-2.25.42,4.56,4.56,0,0,1-2.33.09c-.55-.19-2.28-.62-3.84-1-2.12-.47-2.58-.94-1.81-1.87,2.42-2.91,3-6.37,1.57-9.15-2-3.87-3.61-15-2.79-19.34A51.21,51.21,0,0,1,437,532l2.81-5.94,6.06-.07,2,0Zm-47.74,15-.81,6.5c-1.19,9.54-.77,15.74,1.33,19.51a4.23,4.23,0,0,1,0,4.17c-.8,1.76-.65,3.19.65,6.06,1.57,3.5,1.58,5,.15,21.22-.85,9.6-1.53,17.59-1.53,17.75,0,.63-1.46,12.6-1.86,13.59-.57,1.45-1.13.92-2.91-2.75l-2.21-4.55-3.15-6L386.86,610c-10-22-13.8-37.17-12.37-49.25.86-7.35,1-7.72,3.9-8.64a16.29,16.29,0,0,0,5.07-2.82,8.29,8.29,0,0,1,4.81-1.87c3.18,0,6.14-1.37,9.48-4.38Zm374.5.62a25.92,25.92,0,0,1,5,2.44c15.44,9,26.85,11.45,41.56,9.08l4.74-.76v3.81c0,12.65,4.69,31.15,18.53,73.38,16.74,51.06,21.47,72.4,21.47,96.77,0,10.28-.12,10.88-2.75,13.94-3.1,3.61-7.47,5-26.13,8.24-17.7,3.09-29.4,2.44-38.35-2.14-10.84-5.52-13-8.78-16.23-24.26-3.85-18.6-4.89-32.56-4.18-56.57,1.87-63.85,1.9-74.24.2-92-.92-9.58-2.28-20.61-3-24.5s-1.19-7.25-1-7.45c0,0,.08,0,.17,0ZM406.44,572.45A19.32,19.32,0,0,1,410,574c2.18,1.13,5.14,1.48,10.45,1.25,4.07-.18,7.4-.08,7.4.23s-1.59,1.33-3.53,2.25c-5.08,2.42-13.9,2.26-16.47-.31-1.83-1.83-2.75-5-1.45-5Zm27.77,4.36a1.52,1.52,0,0,1,.82.24c.75.47,3.52.53,5.86,1.38l2.75,1-1,2.28c-1.48,1.51-3.06,2.73-3.5,2.7-2.18-.1-7.28-3-7.28-4.16,0-1.94,1.13-3.43,2.31-3.44Zm-25.74,6.83a11.8,11.8,0,0,1,3,.87,18.72,18.72,0,0,0,7.64.49c2.61-.34,4.74-.26,4.74.17s-1.8,9.92-4,21.1c-4.15,21.14-7,40.4-7,47.31,0,2.95,1,5.47,3.54,9.36a45.41,45.41,0,0,0,5,6.57c.83.69,3.1,4.1,5,7.58,4.38,7.83,4.11,10.24-.56,5a39,39,0,0,0-8.1-6.52c-5.25-3-12.06-8.87-14.36-12.38-2.15-3.29-2.1-9.6.27-30.27,1.13-9.9,2.58-25,3.21-33.5s1.27-15.62,1.41-15.78.05,0,.11,0Zm21.87,3.14h0a11.88,11.88,0,0,1,4,1.33c2.46,1.17,3.47,2.22,3.09,3.21-.32.81-2.15,8.48-4.07,17S428,631.6,425.73,641s-4.4,17.36-4.8,17.79c-1.28,1.41-3.45-2.4-3.22-5.64.61-8.52,11.24-65,12.46-66.26a.24.24,0,0,1,.17-.06Zm343,5c.56-.07.6.61.6,2.34,0,2.76-.42,3-8.25,5.59-4.53,1.48-11.31,3.37-15.06,4.21-13.64,3.05-30.46,1.23-37.38-4.06-4.11-3.13-4.33-5-.36-2.94,4.73,2.44,15,4.48,22.55,4.51,12,0,28.8-4,36.25-8.78a5.43,5.43,0,0,1,1.65-.87ZM709,603.42l2.58,2c9.78,7.69,43.09,7.3,58.61-.69,1.57-.81,3.09-1.22,3.39-.92s0,15.07-.74,32.82c-1.47,36.84-1,63.74,1.42,74.78.89,4.13,3.05,12.43,4.79,18.45,2.83,9.75,3.67,11.46,7.74,15.6a47.26,47.26,0,0,0,6.17,5.56c1.37.76,1.79,4.92,2.81,27.89.66,14.85,1.44,28.84,1.73,31.09l.53,4.09-5.34,2.41c-4.56,2.06-6.89,2.41-16,2.41-5.86,0-10.89-.23-11.17-.51s-2.37-13.78-4.64-30-4.56-31.39-5.07-33.72-2.75-18.3-4.94-35.5c-5.44-42.57-8.7-64.32-10-66.74a3.7,3.7,0,0,0-2.55-2c-1.82,0-2,8.16-.39,19.58.91,6.54.83,8.21-.5,10.83-.87,1.7-3.62,12.32-6.13,23.59s-6.36,27.64-8.58,36.37-4.23,18.39-4.47,21.5-.89,10.36-1.42,16.13-1.28,17.63-1.64,26.34c-.65,15.53-.71,15.85-3.07,16.75h0c-2.37.9-12.4,1-17.27.23-1.38-.23-6.06-.39-9.5-2.44L679,815.51l-.6-26.38c0-15.5-.15-32.45-.32-37.68-.34-10.67,2-22.51,12.83-66,5-19.83,12.4-53.24,17-76.26Zm-45,7.88c-1.57-.08-2.11.6-2.11,2.05,0,2.29,6.85,6.07,12.8,7.07,11.77,2,22.21.19,23-4,.24-1.25-1.54-1.51-11-1.59-8.42-.07-12.7-.59-16.88-2.05A24.22,24.22,0,0,0,664,611.3Zm126.06,15.27c-1.06-.07-1.2.59-1,2,.39,2.64,4.43,5.76,8.94,6.92,5.69,1.45,21.15.35,26.16-1.87,8.76-3.87,7.28-6.79-2.28-4.52-7.78,1.84-21.78,1.28-27.48-1.1A17.4,17.4,0,0,0,790.06,626.57Zm-49.35,68.57c.86-.06,1.43,5.24,2.69,15.82.85,7.14,2.44,18.22,3.52,24.61,1,5.79,6.93,43.26,8.32,52.88q4.5,30.9,6.78,33.68a4.31,4.31,0,0,0,2.92,1.33,3.16,3.16,0,0,1,2.39.91c.31.5,1.48,9.17,2.61,19.25s2.83,22.16,3.78,26.83l1.74,8.51-2.73,10.5c-1.5,5.77-3.81,13.64-5.13,17.5l-2.39,7-4.05.31a14.66,14.66,0,0,1-2.76,0c-2.59.66-8.67.15-8.68.15H718.06l-.65-4.25c-1-6.46-5.43-21.64-7.5-25.71-1.46-2.87-1.67-4.53-1-8.08,1.38-7.42,5-40.66,5-46,0-3.71.37-5,1.46-5,2.59,0,3.32-3.17,5-22,.94-10.17,1.77-18.54,1.85-18.62h0l.1-5.45.3-7.71c.17-4.24,2.62-20.14,3.58-21.57q0-.18.12-.39c1.91-4.91,6.07-20.9,9.94-38.28,2.41-10.82,3.56-16.23,4.42-16.28Zm53.55,127.48h0a.49.49,0,0,1,.19,0c.91.92.56,60.73-.37,62.41-.78,1.39-2.29,1.84-6.48,1.91l-5.47.09-1.6-8.06c-1.82-9.13-2.95-17.17-5.14-36.57-.84-7.42-1.77-14.28-2.08-15.25-.48-1.52.16-1.75,4.83-1.75a44.75,44.75,0,0,0,10.67-1.57,29.53,29.53,0,0,1,5.45-1.25Zm-109.5,2.09,5.28,1.37a58.69,58.69,0,0,0,12.18,1.37h6.9l-.62,4.25c-.71,4.84-4.61,46.2-4.61,48.89,0,1-1.48,2.9-3.3,4.28a37.13,37.13,0,0,1-6.85,4l-3.54,1.48-.63-16.2c-.55-14.17-2.44-34.61-4.23-45.82ZM423.38,853a2.91,2.91,0,0,1,1.51.16c.39.44,1.21,5.05,1.83,10.25s1,9.51.89,9.6c-.53.37-12.33-4.82-13.35-5.87-1.21-1.26-4.81-11.6-4.22-12.12.82-.72,9.71-2,13.34-2Zm-19.72,3.77c.66,0,1.31.88,1.66,2.28s2.24,6.64,4.14,11.45l3.46,8.74-2.1,4.86a33.21,33.21,0,0,0-1.95,20.26c.68,2.82.95,6.25.61,7.62l-.63,2.48H363.38l-9.49-5.36c-5.23-2.94-11.65-6.72-14.29-8.4l-4.8-3.05,5-1.66a19.39,19.39,0,0,0,8.05-5.13c3.33-3.8,3.55-4.59,2-7.47-1.4-2.6-8.27-2.59-14.37,0l-4.58,2,4-6.28a87.65,87.65,0,0,0,5.44-9.81c1.43-3.41,1.7-3.55,7.91-4.13a65.35,65.35,0,0,0,12.4-2.61c4.91-1.65,6.65-1.82,9.8-.95,6.43,1.78,21.63-.43,33-4.77a.66.66,0,0,1,.28-.05Zm-82.46,7.89c1.23,0,3.11.12,6.07.37,4.47.38,8.23.78,8.37.89a35.58,35.58,0,0,1-2.82,5.85,38.27,38.27,0,0,1-3.74,6.07c-.38.23-3-1.68-5.92-4.23-4.27-3.79-5.12-5.07-4.62-7,.37-1.41.61-1.95,2.66-2Zm128,7.94c.48,0,.66.5.66,1.46,0,2.59-2.95,6.83-6.41,9.2a12.35,12.35,0,0,1-5,2.2c-2.19,0-1.51-1.05,5.34-8.25C446.8,874.05,448.43,872.6,449.23,872.59Zm-133,.94,3.69,3.33a44.4,44.4,0,0,0,5.5,4.35c1.67.93,1.57,1.36-1.34,6.09s-3,5.17-1.41,6.09c1.36.79,1.41,1,.22,1-2,0-10-3.64-10.12-4.65-.45-3-.09-5.5,1.57-10.51Zm100.33,1.2a2.39,2.39,0,0,1,1.08.2,66.08,66.08,0,0,0,6.38,1.82c4.46,1.08,4.66,1.29,5.75,6a53.71,53.71,0,0,1,1.12,5.79c0,1.62-4.39,1-7.68-1.15-4.92-3.15-9.37-12.35-6.65-12.65Zm-72.05,11.82c.55.05.1.44-1.12,1.45a34.53,34.53,0,0,1-6,3.54c-3.94,1.84-7.68,2.28-10.37,1.21-1.5-.59,10.54-5.28,15.37-6a12.8,12.8,0,0,1,2.12-.22Zm361.13.94,2.59,9.35c1.43,5.14,2.89,11.21,3.26,13.48l.66,4.13h-35.3c-19.41,0-35.11-.18-34.88-.4s4.5-2,9.49-3.89a147.62,147.62,0,0,0,26.34-12.89c4.43-2.69,6.74-3.57,7.45-2.85,2.69,2.68,11.62.46,17.26-4.3Zm-289.9,1.35h0c.61,0,1.5.57,3.09,1.91,3.77,3.16,9.39,4.39,13.34,2.9,2.7-1,3.45-.66,11.32,5.35,9.36,7.13,16.15,10.89,24.4,13.52l5.5,1.74-28.58.1-28.57.09-1.18-5.08c-1.38-6-1.52-17.82-.24-19.84.27-.43.54-.67.92-.69Zm380,3.3c1-.06,1.64,1.37,3.17,6.07a80.54,80.54,0,0,0,4.57,11.12,43.12,43.12,0,0,1,2.39,4.75c0,.21-7,.37-15.62.37-13.52,0-15.46-.19-14.42-1.44,2.58-3.12,9.72-4.87,17.06-4.19,5.8.54,7,.39,7-.84,0-3.35-8.95-6.32-15.4-5.11a23.14,23.14,0,0,0-7.12,3.16c-2,1.39-3.88,2.35-4.09,2.15s.86-4,2.37-8.45c2.29-6.74,3-7.84,4-6.67s14.37-.16,15.31-.67a1.83,1.83,0,0,1,.75-.25Zm-487.83.17,3,2.53a16.16,16.16,0,0,0,12.95,3.26c1.63-.32,3.21-.11,3.58.48s5.44,4.21,11.29,8.06,10.82,7.19,11.05,7.41-11,.4-24.86.4c-21.56,0-25.19-.21-24.72-1.43.3-.79,1-3.23,1.62-5.41a85.64,85.64,0,0,1,3.57-9.63Z" class="cls-10" id="path1761"></path></svg>