<svg viewBox="0 0 1080 1080" xmlns="http://www.w3.org/2000/svg" id="the_system_is_on_maintenance"><defs><style>.cls-1{fill:#f9f1cb;}.cls-2{fill:#f37a81;}.cls-3{fill:#aac3da;}.cls-4{fill:#9a702d;}.cls-5{fill:#c2dc82;}.cls-6{fill:#fed251;}.cls-7{fill:#f2d0b9;}.cls-8{fill:#efca87;}.cls-9{fill:#e8a1a4;}.cls-10{fill:#483613;}</style></defs><title>the system is on maintenance</title><path d="M1038.81,888.46c0,11.83-98.17,22.73-256.33,28.46s-351.31,5.36-504.33-.93S36.42,898.46,46.52,886.65l495.76,1.81Z" class="cls-1" id="path2531"></path><path d="M290.21,400.15s-42,34.85-53,48.3-22.54,14-22.54,14l4.55-10.23s-5.12-11.18-26.14-4.55-23.3,11.37-19.7,30.87,11.93,16.86,29.93,20.08,34.47-1.7,35.22-2.08,39-11.94,47.92-8,10.42,1.9,20.46,22.73,20.45,33,20.45,33-8.71,18.75-9.27,20.45-6.82,12.12,2.27,17.62,29,17.61,57.58,18,36.17.57,36.17-12.5-1.52-207.4-1.52-207.4-25.56-1.13-36.74-1.32-14,1.32-14,1.32,8.53,9.28,7.58,18.19-3.41,30.3-4.73,40.72-2.47,39.58-2.47,47S374,512.14,383,525s8.14,45.27,8.14,45.27-4.73-21.78-21.59-49.43-21-36.56-29.93-49.44-18.93-35.8-18.93-35.8-5.21,12.41-9.95,7.58-18.08-39.3-18.27-39.78-2.28-3.22-2.28-3.22Z" class="cls-2" id="path1579"></path><path d="M413.32,619.1s-19.51,13.64-59.28,5.12-36.56-15.91-44.7-4.74S269.76,674.6,258.2,699s-23.86,62.5-29.55,82-11.55,30.12-10.6,32.77,20.45,12.12,29,9.85a24,24,0,0,0,12.69-8.14s23.48-64,34.09-74.82,41.86-46,44.7-49.62,13.35-18.28,13.35-18.28l14.3,1.71s4.9-8.69,12.14-3.6,37,37.77,37,37.77Z" class="cls-3" id="path1582"></path><path d="M301.16,338.63s2.27,8.51,1.47,11.05-2.34,6-3.35,4.09-6-14.6-6-14.6Z" class="cls-4" id="path1584"></path><path d="M304.91,335c-.81-2.27-3.49-14.33-6.83-17.54s-9.25-4.56-9.25-4.56-2,2.28-2.14,0,2.41-25.57,7.9-37.23S311.87,258.54,318.7,256s13-6.29,21.29-4.28,10.85,3.08,14.33,5.89S360,262,362.49,265s4.15,4.42,9,8.17,7.37,5.22,9,8,3.08,4.69,3.48,6.3,1.21,2.54.54,5.35-2.82,7.1-4.29,7.77-2.27,9-2.55,10.32a32.91,32.91,0,0,1-3.61,8.17c-1.61,2.41-6.56,7.09-6.56,7.09s-.94-6.69-.4-9.91a61.54,61.54,0,0,0,.4-11.65c-.27-.94,4-1.07-3.89-4.28s-10.44-3.49-7-5,10.71-4,12.72-5.49a40.14,40.14,0,0,0,5.09-4.55c.4-.54-.13,2-17.94,2.27s-24,1.21-30-1.34-12.33-2.27-12.19,1.88,1.3,3.95-.27,6.43-1.47,8.3-2.14,11.52-.81,13.92-1.07,16.2a50.35,50.35,0,0,1-1.21,7.63c-.53,1.48-4.69,5.09-4.68,5.09Z" class="cls-4" id="path1586"></path><path d="M722.09,467.47s-9.24,19.42-10.58,27.32-4,24-4,24a37.72,37.72,0,0,1-9-32c3.48-19.69,14.87-24,15.81-30.67s-.28-11.78,3.74-16.87,15.27-2.95,15.27-2.95,9.65,2.28,24.11,5,33.88,13.39,39.24,23.44,3.75,39.24,2.55,50.49.13,37.36,4.15,44.06,16.74,21.16,24.64,30.94,16.07,16.34,16.21,22.23-1.48,24.37-5.23,23-23-39.78-30.67-43.53-12.85-5.49-25.44-1.47-19.56,5.08-20.23,4.28-13.93-13.93-15.53-26.92,6.83-22.23,9-39.24,5.09-23.84,4.42-31.47a31.86,31.86,0,0,1,1.74-13.53l12.06.4s-24.38-7.23-31.88-13.66S731.2,460,728.93,455.82s-6.3,2.67-6.3,4.95-.53,6.7-.53,6.7Z" class="cls-4" id="path1588"></path><path d="M684.36,596.37s-17.61-14.77-25.57-17-23.86,38.26-23.86,38.26l40.91,3.79Z" class="cls-5" id="path1590"></path><path d="M731.14,568H705l-12.5,6.25-6.43,1.14s3.78,3.22,6.25,13.64-5.12,26.7-5.12,26.7,7,15.54,7.58,17.43,19.51,40.72,19.51,40.72,13.64-6.44,22.35-6.25,11.36,2.27,18.75,0,33,9.66,35.8,10-1.71-4.92-3.6-17.61a63.48,63.48,0,0,1,.94-23.3s9.28,19.7,9.28,21.78-5.87,8,11,3,19.51-6.25,24.82-7.2a53,53,0,0,1,6.43-.94s-23.29-40.91-32.57-49.25-26-4.92-32-4.73a100.05,100.05,0,0,0-11.75,1.14s-7.19,17.23-11,23.67-15.53,26.33-21.59,3.22,0-59.48,0-59.48Z" class="cls-5" id="path1592"></path><path d="M832.63,732.91s-41.25-1.68-54-8.12-34.47-16.29-34.47-16.29l-23.69,1s-32.37-13.16-42.41,1-5.11,35,11.36,73.11,20.27,43,23.68,44.32S733.61,822,733.61,822l-8.72-66.86s30.12,16.67,34.48,18.19,39.39,12.5,44.32,8.9,25.76-21.4,28-26.14,6.93-19.75.9-23.13Z" class="cls-6" id="path1594"></path><path d="M666.75,716.46s-29-16.1-43.19,6.06S609.74,753.77,593.83,778s-26,35.8-26.33,40,13.45,21.59,22.16,17.61,41.1-48.3,45.84-53.22,14.2-12.31,16.28-13.26,20.1,1.12,20.1,1.12S661.63,724.79,666.75,716.46Z" class="cls-6" id="path1596"></path><path d="M321.51,375.46s-.53,2.28,10.72,11,13,1.61,13,1.61l-1.34-11.65Z" class="cls-7" id="path1598"></path><path d="M744.13,543.64s-1.53,9.36-7.12,15-5.39,3.6-5.39,3.6l-4.27-15.06Z" class="cls-7" id="path1600"></path><path d="M236.87,391.4s-12.32,15.8-26.38,25.44-25.18,9.38-25.18,9.38l-8.84,18.08s10.18-11,25.44-7.37,21,2.15,21,2.15Z" class="cls-7" id="path1602"></path><path d="M573.94,394.09a25.19,25.19,0,0,1-25.19,25.19h0a25.19,25.19,0,0,1-25.19-25.19h0a25.19,25.19,0,0,1,25.19-25.19h0a25.19,25.19,0,0,1,25.19,25.19Z" class="cls-1" id="path1604"></path><path d="M692.88,508.68a22.35,22.35,0,1,1-22.35-22.35A22.35,22.35,0,0,1,692.88,508.68Z" class="cls-1" id="path1608"></path><path d="M491.55,447.88s11.36,8.9,16.85,9.28,16.29-9.09,16.29-9.09.8,13.37,13,15.11,18.62-3.08,18.62-3.08,4.28,2.82,12.19-.27S580,442,580,442s8.83,4.15,11.38,5.89,5.09,4.69,14.19,1.21,15-17.14,15.14-20.89-9.78-29.33-9.78-29.33,16.74-3.89,20.9-8.58,3.48-14.73.93-16.74-18.61-5.35-18.61-5.35a10.85,10.85,0,0,1,9.91,10.18c.94,9.64-2.28,14.06-13.26,17.68s-12.19,7.23-10.58,12.72,7.77,14.2,3.88,23-6.43,15.4-10.85,15.26-21-13-26.25-9.64-5.12,12.91-9.51,17,1.35,6.43-11.38,8.57-16.07.94-18.88-9.64-4.29-15.81-7.64-16.88-17.94,11.25-19,11.25-9,.1-9,.1Z" class="cls-1" id="path1610"></path><path d="M966.38,738.62s-18.94,62.12-66.67,84.85-105.31,8.33-101.9,20.46,40.91,11.74,58.34,23.86S834.56,886,834.56,886l91.1-.56s13.26-5.31,13.26-19.7S927.37,835,927.37,835a114.87,114.87,0,0,0,23.86-37.12c9.09-22.92,15.15-59.28,15.15-59.28Z" class="cls-1" id="path1612"></path><path d="M646.29,836s6.63,9.28,22.16,9.28,37.69.57,23.11,5.49-56.07-1.89-61.18,11.56-18.18-.57-18.18-.57,14.2-21.87,21.77-24.44S640.61,830.48,646.29,836Z" class="cls-1" id="path1614"></path><path d="M553.48,811s-25.72,1.07-23-15.54-23.3-35.09-47.94-33.21-40.45-19.82-40.45-19.82-.8,52.23,6.7,75.8,15,27.86,35.89,28.13,59.73,3.74,59.73,3.74l17.82-21.69-3.49-15.27Z" class="cls-1" id="path1616"></path><path d="M875.19,637.8a75.16,75.16,0,0,0-27.81,6c-.65.26-1.34,0-2.11-.88,0,3.64,2.09,5.21,4.19,6.75a1,1,0,0,1-.08-.26c0-1.17,14-4.91,21-5.59,1.57-.15,3.17-.23,4.8-.23,24.45,0,55.49,16.75,71.66,39.32,11.34,15.84,16.56,32.38,16.59,52.48s-4.9,39.78-15,60c-9.19,18.31-25.45,39.9-40.51,53.77-4.13,3.81-7.51,7.45-7.51,8.1,0,3.34,6.93-.77,18-10.67l7.06-6.33,1.93,2.34a73.25,73.25,0,0,1,5.48,9.18c3.95,7.62,4.69,14.54,2.1,19.55-2.29,4.44-8.07,8.89-13.72,10.56h0a29.12,29.12,0,0,1-6.14.85h19.54c-.15,0-.23-.1-.23-.16,0-.46,1-1.7,2.1-2.75,8.79-8,8-23.89-1.87-36.8-2.05-2.69-4.15-5.46-4.66-6.14-.64-.87.39-2.74,3.35-6.11,9.75-11,22.79-33.39,28.78-49.29,1.34-3.56,3.64-11.22,5.1-17,2.42-9.56,2.67-12.23,2.61-28.55,0-16.6-.26-18.68-2.75-26.79C958.52,681.28,939.68,660,912,646.84c-13.06-6.19-25-9.19-36.77-9.05Zm-31.6,104.73c-.93.12-2.26.93-3.76,2.55l-2.45,2.65s-3.68,3.18-8.83,7.93c-1.64,2.67-4.17,5.13-8.27,8.75-4.69,4.13-11,9.25-14.1,11.36l-5.57,3.83h0s-1.37.21-6.65,3.08c-1.44.78-2.06,2.5-3.33,2.65l-.35.24c-3.51,2.27-17.42,7.55-24.78,9.39a59.3,59.3,0,0,1-14,1.37c-6.91-.2-7.62,0-7.62,1.69,0,2.36,5.1,4.28,11.5,4.34,7,.07,21.69-3.38,30.68-7.2,20.06-8.54,50.64-33.83,57.92-47.92,1.63-3.15,1.17-4.9-.39-4.71Zm-96.72,28.84h0l-8.16,0-8.17,0c-2.51,3.09-1.74,4.7.79,5.51H746.1c9.35,0,13.54.2,17.52,1.09-6.93-3.65-10.94-8.53-16.74-6.65ZM995.7,803.62c-6,.42-15.85,17.5-21,36.56-1.53,5.64-3.1,10.25-3.48,10.25s-1.47-1.32-2.43-2.93a15,15,0,0,0-5-4.69c-2.69-1.45-3.7-1.55-5.87-.56-4.19,1.9-5.87,7.3-5.19,16.68.55,7.61,3.6,18.83,5.7,20.93a3.72,3.72,0,0,1,1,2.27c0,.45-.63.74-2.11,1l8.17.4-1.87-3.78a58.44,58.44,0,0,1-3.25-8.77c-1.46-5.32-2-21.81-.69-23.08,1-1,5.24,3,7.91,7.35,1.57,2.53,2.1,5.28,2.27,11.71.22,8.17,1.56,12,3.89,11.25.56-.19,1.14-3.69,1.3-7.78.53-13.75,8.68-41.25,15.85-53.48,1.91-3.27,3.11-4.91,3.75-5s.71,1.49.36,4.63c-.32,2.95-1.52,13.91-2.67,24.36-2.46,22.44-2.31,33.3.5,36.4,2.56,2.84,3.32,2.66,5-1.15a29,29,0,0,1,5.51-7.2c4-3.79,4.11-3.85,4.08-1.5a44.41,44.41,0,0,1-2.24,8.95l-2.22,6.5,5.76.46,2.41-6c2.66-6.59,3.27-14.15,1.34-16.48-.68-.83-2.82-1.51-4.74-1.51-2.73,0-4.35.86-7.38,3.89l-3.88,3.88v-3.13c0-1.73,1.13-13,2.49-25.14s2.47-23.8,2.47-26c0-5.42-1.93-8.93-5.09-9.3a3.44,3.44,0,0,0-.56,0Z" class="cls-8" id="path1630"></path><path d="M661.91,782.34c-2-.11-1.85,1.12.53,3.68,3,3.18,10.14,6.93,16.13,8.44,2.43.61,3.56,1,4.9,2.81-.87-4.45-3-6.29-4.62-9.23,0,.13,0,.22,0,.24-.19.19-4.07-1.26-8.62-3.23-4-1.72-6.79-2.62-8.32-2.71ZM628.79,794c-1.23,1.59-5.8,7.38-6.61,8.42a2.57,2.57,0,0,1,.59-.5c.41,0,1.63,3.3,2,5.45.91,5.69,3.8,11.84,8.5,18.07a45.43,45.43,0,0,1,4.13,6c0,.31-2.9,2.47-6.43,4.8-8,5.27-16.78,14.84-20.26,22.13-3.13,6.57-3.55,15.39-1,21.32l1.6,4.88h6.15l-1.77-3.84c-2-4.32-2.36-14.53.46-19.9,3.24-6.16,11.3-15.15,18.78-20.94l6.66-5.16,6.33,4.25c7.47,5,14.94,7.71,20.12,7.27,5.38-.45,5.24-2.36-.27-3.75-13.35-3.35-27.79-15-33.84-27.4-3.69-7.51-6.62-18.48-5.36-20.73.06-.11.18-.27.26-.4Z" class="cls-8" id="path1641"></path><path d="M83.92,799.35c-2.63-.1-4.07,2.38-4.34,7.41-.55,10.36,9.74,36.69,20.15,51.55l5.4,7.71-2.47,2.86c-2,2.3-2.38,3.68-2,7a25.47,25.47,0,0,0,1.19,5.83,2.22,2.22,0,0,1,.13,1.49l.74,1.76,6.6-.82-1.56-4.4c-2-5.55-.87-8.87,3.45-8.45,1.77.17,3.21-.14,3.21-.69s-2.71-4.74-6-9.31C98.49,847.59,87,821.92,85.05,809l-.6-3.92L89,809.51c9.54,9.25,23.36,28.7,36.89,51.93,5.95,10.21,9.27,13.26,8.71,8-.14-1.38-2.13-6.33-4.4-11s-4.25-10.08-4.38-12a54.32,54.32,0,0,0-1.8-8.94,80.21,80.21,0,0,1-2.18-12.5l-.61-7.06,2.11,2.5c2.63,3.12,10.34,18.06,14.44,28s5.06,11.41,6.74,10.77c.77-.3,1.95-3.18,2.63-6.41,1.36-6.43,2.7-9.22,3.87-8s1.72,24.36.89,32.16l-.7,6.53,7.36-4.74-.38-19.11c-.27-13.52-.71-17.27-2.15-20-3.26-6.07-8.48-5.63-11.11.94l-1.67,4.17-4.36-9.69c-9.28-20.61-15.93-27.21-21.66-21.49-1.92,1.92-2.08,2.9-1.59,9.75a67.46,67.46,0,0,0,1.19,9.62c.54,1.67.36,1.61-1.11-.37-11.31-15.24-14.65-19.4-20.29-25.23-5.06-5.23-8.89-7.89-11.53-8Z" class="cls-8" id="path1651"></path><path d="M662.55,159H636.88c-67.79.09-101,1.05-168.51,4.85-36.78,2.07-46,4.58-56.06,15.22-8.26,8.72-11.23,20.31-11.23,33.52-.14,5.86.54,9.75,0,17.31-.48,7.15-.65,25.69-.44,41.19l.42,31.38a20.69,20.69,0,0,1,5.64-.88l-.25-49.44c-.26-50.24-.15-51.84,5.22-62.08,5.87-11.25,17-17.54,33.14-18.79,9.78-.75,45.89-2.55,70-3.48,6.6-.25,28.65-1.14,49-2,31.41-1.29,47.71-1.35,108-.39,77.62,1.23,78.38,1.29,85.06,7.15,9.84,8.65,12.41,25.54,9.69,63.82-1.8,25.38-2.07,51.12-1,97.5.8,34.85,1.06,107.51.39,108.18a7.41,7.41,0,0,1-1.7-.13c1.07.32,2.14.63,3.11.87,3.67.92,5.17,1.13,5.17,1.13h0l-.75-93.48c-.66-83.68-.5-106.27,1.14-140.19,1.39-28.88-6.71-44.66-25.13-48.92-7-1.62-30.11-2.29-85.32-2.36ZM488.81,182.44c-13.75,0-38.42,1.81-45.1,3.6-19.91,5.33-22.23,25.16-22.23,25.16l.57,48.73c.32,26.95.65,53.73,1.23,59.5s1.52,43.8,2.07,84.5c.95,69.63,1.4,90.5,4.14,195,.61,23.1.92,64.05.69,91-.49,57.07.35,104.63,2.23,126.37,1.51,17.44,2.17,19.06,10.39,25.27,7.9,6,11.77,6.54,53.83,7.93,20.76.69,42.06,1.94,42.38,2,4.4.67-.25.43-.69.81,2.36-.8-.22-1.92,1.36-3.14,2.86-2.2,5.2-4.21,7.12-6-4,1.4-18.72,1.48-43.92.21-7.7-.39-21.33-.76-30.29-.82-15.11-.12-16.62-.3-21.06-2.55a34.22,34.22,0,0,1-8.35-6.38c-4-4.4-3.84-3.69-6-30.69-.85-10.45-1.13-37.47-.93-89,.27-69.68-.73-142.85-2.89-209-.52-16-1.39-59.38-1.93-96.5s-1.45-72.68-2-79-1.14-34.46-1.28-62.51c-.26-53.94-.1-56.33,4.49-66.23,1.5-3.22,3.22-4.91,7.25-7.09,4.9-2.65,6.49-2.93,21.15-3.77,8.73-.5,22.61-.88,30.86-.85,18.49.07,20.59.8,26.1,9.08,2.62,3.93,5.22,6.51,7.9,7.82,4.7,2.3,4.63,2.3,74,1.18,37-.6,47.86-1.07,51.08-2.22a24.81,24.81,0,0,0,12-10.52c1.29-2.48,2.07-2.78,8.68-3.34,4-.34,19-.47,33.4-.29,29.21.38,29.7.49,33.23,7.5,3.72,7.4,4,10.56,4.59,53.24.72,50.74,2.31,120.35,3.08,135,.57,10.91.72,50.54.19,51.07-.13.14-.54.15-1.12.08l.11,0a42.4,42.4,0,0,0,7.71.94l-.14,0L752,427.5c-.31-5.27-.64-23.13-.64-39.69,0-31.32-1.5-112.86-2.9-157.88-.73-23.62-1-26.47-3-31.12-2.56-5.91-7.08-10.66-12.09-12.71-4.63-1.9-57.26-2.19-66.91-.38-6,1.13-6.56,1.48-8.62,5.21a25.73,25.73,0,0,1-6.41,7c-4,2.87-4.53,3-12.38,2.5-12.75-.76-49.36-.57-80.86.42-32.27,1-32,1.07-35.7-6.19-5-9.86-11.55-12.24-33.68-12.21Zm178.74,25.05c-.39,0-.86.23-1.41.78-1.35,1.36-2.42,21.41-1.35,25.65.71,2.84,3.06,3.35,4,.87.34-.91.62-7,.65-13.65,0-9.47-.48-13.52-1.9-13.65Zm-15.87,5.45a2,2,0,0,0-.81.13c-1.15.45-1.48,2.43-1.48,8.72a65.53,65.53,0,0,0,.62,10.39c.33,1.24,1.17,2.25,1.87,2.25,1.74,0,2.46-3.3,2.49-11.31C654.37,216.57,653.46,213.11,651.68,212.94Zm46.82,2.22c-.53,0-1.06,0-1.62,0a58.74,58.74,0,0,0-10,1.06c-2.9.79-3,1-3.29,7.33-.44,9.68.62,11.65,6.49,12.11,4.93.38,7.49.21,15.3-1.06,3.24-.53,4.77-1.34,5.47-2.92a4.5,4.5,0,0,1,3.92-2.48c4.23-.42,4.39-2.57.33-4.27-2.5-1.05-3.61-2.24-4-4.34-.75-3.75-4.75-5.5-12.57-5.46Zm-187.28.38a2.83,2.83,0,0,0-2.84,2.86c0,1.33.66,2,1.89,2,2.18,0,3.65-2.86,2.21-4.3A2.05,2.05,0,0,0,511.22,215.54Zm-17.12.91c-4,0-6.21,2.43-3.61,4.07,2.43,1.54,8.89,1.08,9.57-.69.82-2.13-1.35-3.35-6-3.38Zm-38.63,1.31c-5.22.06-8.34.91-8.86,2.48-.22.66.65,1.62,1.94,2.13,2.61,1,20.09,1.37,23.58.43,1.24-.33,2.25-1.17,2.25-1.88,0-1.62-2.47-2.18-13-2.95-2.19-.16-4.17-.23-5.91-.21Zm235.47,3.67c2.39,0,2.53.28,2.25,4.25-.26,3.54-.69,4.31-2.56,4.57-2,.29-2.25-.08-2.25-4.25S688.57,221.43,690.94,221.43Zm7.44,0h8v9h-8v-9Zm-56.57.14a2.25,2.25,0,0,0-.83.19c-1.85.71-2.23,7.9-.63,12.11.54,1.41,1.67,2.56,2.5,2.56,1.21,0,1.51-1.31,1.51-6.25,0-6.07-.75-8.67-2.55-8.61Zm-14,7.86c-1.81,0-2.92,2.38-2.11,4.5,1.07,2.78,3.64,1.72,3.64-1.5C629.38,230.4,628.88,229.43,627.85,229.43ZM541.1,304c-4.72,0-9,.41-10.39,1.18-2.43,1.34-4.65,7.31-6.45,17.38-1.72,9.6-3,10-14.54,4.88-13.16-5.84-16.71-5.51-25.18,2.35-7.69,7.15-8.07,12-1.93,24.5,2.44,5,4.17,9.41,3.85,9.9s-3.68,1.64-7.47,2.58c-14.56,3.62-16.12,5.65-15.34,19.9.51,9.28.79,10.38,3.07,12.34,2.61,2.25,8.19,4.56,15.3,6.36,4.91,1.24,6.27,4.34,3.92,8.9-.82,1.58-2.87,6.35-4.56,10.62-3.65,9.17-3.21,11.95,2.76,17.76,3.81,3.7,11.29,7.68,14.52,7.72,2.6,0,8.59-3.23,14.49-7.89,2.82-2.23,5.73-3.83,6.46-3.55s2.14,3.64,3.12,7.46c2.78,10.77,6.46,17.26,10.65,18.76,4.47,1.61,15.23.93,20.82-1.31a10.89,10.89,0,0,0,5.82-4.73c2.25-4.35,5.34-13.66,5.37-16.12,0-5.14,1.24-5.06,12.94.79,6.16,3.09,12.09,5.61,13.17,5.61,3,0,7.34-2.57,10.36-6.16,2.76-3.28,8.51-14.29,8.51-16.27,0-.59-2-5.55-4.5-11s-4.5-10.72-4.5-11.62c0-1.11,1.13-1.84,3.39-2.21A75.27,75.27,0,0,0,616.63,398c9.61-4.13,10.79-5.65,10.67-13.81-.19-12.44-3-15.66-17.95-20.37-5.46-1.72-9.19-3.46-9.5-4.42s1.11-5.08,3.09-9.35c4.43-9.58,5.11-13.35,3.14-17.17S594,319.44,591.89,319.44s-6,2.07-14.78,7.66c-3.82,2.46-7.48,4.26-8.13,4s-2-3.08-3-6.31c-3.13-10.08-5.57-17.44-9.57-19.18C554,304.56,547.17,304,541.1,304Zm-1.75,6.39H554.1l4.25,11c2.34,6.07,4.9,11.7,5.71,12.5,3.73,3.74,9.21,2.43,20.75-4.95l5.69-3.64,2.69,2.26a70.23,70.23,0,0,1,5.85,5.8l3.15,3.53-4.45,10.81-3.15,7.63c-.64,2.25-1.16,3.9.49,6.76,1.76,3,2.81,3.94,9.8,6.44,4.4,1.56,9.91,3.56,12.25,4.42l4.25,1.57V389.2l-10.25,4.3c-10.69,4.48-15.75,8-15.75,11.1,0,1,1.84,6,4.1,11.06s4.31,10.16,4.56,11.27c.5,2.1-5.71,12.54-9.38,15.78-2,1.73-2.35,1.62-13.3-3.75-6.2-3-12.23-5.53-13.41-5.53-3.49,0-6.44,2.8-7.66,7.28-3.27,12-5.2,16.8-7.19,17.86-1.15.62-17.58,3-19.52,1.63-1.52-1.07-3.46-9.64-3.46-9.64-2.06-5.57-3.74-11-3.74-12.11,0-2.3-3.35-4.76-7.56-5.54-2.47-.46-4,.31-9.48,4.73-11,8.89-11,8.88-17.65,3.61a47.92,47.92,0,0,1-6.65-6c-.66-1.05.29-4.65,3.2-12.08,4.69-12,4.75-12.4,2.52-17.09-1.75-3.66-4.72-5.44-13.38-8a42.11,42.11,0,0,1-6.67-2.4c-.72-.47-1.31-4.39-1.5-10.11l-.33-9.33,10-3c5.5-1.62,10.56-3.69,11.25-4.59,1.92-2.52,1.46-7.16-1.38-13.75-6.16-14.34-6.06-13.73-3-17.72,4.14-5.42,10-9.18,12.31-7.85,4.09,2.37,18.65,8.06,20.63,8.06,1.16,0,3.77-1.15,5.81-2.56,3.89-2.7,5-5.57,6.41-15.94,1.05-7.95.52-8.49,8.47-8.5Zm126.77,6c-2,0-3.21,1.67-4.72,6.33-.94,2.92-2.45,4.6-6.37,7.07a67.61,67.61,0,0,1-8.31,4.5c-7,2.81-9.91,9.42-9.06,20.68.3,4,1.06,8.21,1.7,9.39a3.09,3.09,0,0,0,2.83,1.83c1.44-.28,1.69-1.77,1.73-10.31,0-5.88.54-10.89,1.26-12.19s4.29-3.82,8.05-5.79c10-5.26,13.37-9.1,13.94-16C667.54,317.51,667.33,316.43,666.12,316.43ZM537.23,347.55c-8.61-.06-11.63,1.36-18.5,7.29-22.65,19.54-17.37,59.63,9,68.76,6.37,2.21,19.4,2.38,26.21.36,15.11-4.49,24.8-17.92,26.09-36.14.48-6.66.18-9.42-1.64-15.43-1.93-6.35-3-8.11-8.39-13.47-8.28-8.27-14.4-10.66-28.76-11.26-1.48-.06-2.83-.1-4.06-.11Zm-7.74,5.66,10.69.41c15.37.58,23.64,4.91,30,15.7,2.53,4.29,2.72,5.41,2.72,16.11s-.23,12-2.8,17.18a30.13,30.13,0,0,1-14,14c-3.32,1.72-6.26,2.25-13.72,2.47-5.23.15-10.87-.15-12.55-.67-7.94-2.45-16.68-14.6-18.5-25.72-2-12,2.85-25,12.72-34.35Zm-114.86.19c-2.13.76-4.3,2.55-8.06,2.62,2.29.5,1.81,3.1,1.81,8.61v6l-.5,5.26h0l.21,44c.11,24.2.67,58.18,1.23,75.5.83,25.37,1.35,70.65,1.1,95.6l0,4.1v20.08c.77,2.53,2,66.42,1.76,89.72l-.26,22h0l.5,7.44h0l.05,15.77c.08,26.72,2.8,100.5,3.9,105.78,1.39,6.7,7.15,18.12,11.51,22.81a27.73,27.73,0,0,1,3.54,4.25H456.6c-15.29-.92-21-4.08-27.37-13.3-7.36-10.63-8.83-21.14-10-71.26-.5-22.27-1.13-70.81-1.41-107.85s-.78-67.82-1.12-68.37c-.69-1.12-2.37-116.29-3-207.27-.36-50.28-.42-59.6.91-61.54Zm256.28,4a14.47,14.47,0,0,0-5.15,1.65c-5.37,2.55-7.67,6.58-7.58,13.25a32.2,32.2,0,0,0,1.11,8.39c1,2.55.71,2.95-4.37,6.7-6.16,4.56-6.95,5.54-6.14,7.65.75,2,3.55,1.15,9.93-2.88,6.9-4.35,8.18-6.65,6.78-12.18-2.13-8.49-1.55-11.73,2.89-16.06C672.6,359.81,673.3,357.38,670.91,357.41Zm23.84,35.53c-1,.1-2.7,1.61-6.14,5.33l-5.77,6.23-5.56-.65c-4.27-.5-6.34-.25-9,1.09-4.9,2.5-5.88,3.45-5.24,5.12.43,1.11,1.34,1.29,3.69.7a54.64,54.64,0,0,1,10.78-.53c6.88.21,8,0,10.61-2.25,4.27-3.59,9.09-13.09,7.47-14.71a1,1,0,0,0-.86-.33Zm-15.12,34.73-3.37,5c-5.13,7.59-5.9,8.31-9.87,9.09-3.81.75-4.54.59-6.46-1.49a120.9,120.9,0,0,0-9.86-8.22c-7.4-5.67-7.85-5.86-12.22-5.27-5.87.81-15.17,5.22-16.59,7.88-.71,1.31-1,6.66-.75,14.67l.37,12.61-8.5.69c-13.1,1.07-14.83,1.56-16.37,4.6-2.81,5.56-5.77,16.19-5.1,18.3.37,1.18,4,5.58,8,9.78s7.43,8.31,7.59,9.13-1.41,3.29-3.49,5.5c-8.78,9.26-12.85,14.61-12.85,16.89,0,5.65,8.12,18.84,12.66,20.57,1.16.44,6.8.18,12.59-.58,9.43-1.24,10.81-1.22,13.54.23l3,1.61-.41,12.25-.18,5.62c.15,3.71.17,7.5,3.24,9.26,2.07,1.19,6.48,4.23,7.08,4.23,1.8,0,2.22.92.52,4.58l5.09-7.84-6.23-3.48-3.69-1.9v-13c0-7.75,1.19-12.21-5.25-15.63-5.18-2.76-5.31-2.68-15.6-1.54-6.87.76-11,.81-12.19.16-1-.54-3.27-3.9-5-7.47l-3.19-6.49,3.88-4.62c2.13-2.55,5.09-6.19,6.57-8.1A30.92,30.92,0,0,1,611,510c1.38-1,1.5-3.4.94-7.15-.59-3.92-1.49-4.19-6.17-8.64a80.53,80.53,0,0,1-7.42-7.9c-1.84-2.58-1.84-2.74.22-8.83,2.44-7.22,2.79-7.43,15.31-9,7.21-.93,9.42-1.62,11.37-3.57,2.38-2.38,2.41-2.6,1.71-14.73l-.54-9.29A4.26,4.26,0,0,1,629,436.5a63,63,0,0,1,6.93-2.6,8,8,0,0,1,6.4.49l8,6.14,6.88,5.27a7.28,7.28,0,0,0,6.68,2.64h3.53c6.15,0,6.84-.21,7.46-2.25.75-2.44,8.86-14.27,10.45-15.26.54-.33,4.61.38,9.06,1.58,7.71,2.08,11.27,5.9,11.8,12.1.88-2.66,1.33-6.48,3.13-9.05l-2.71-4c-2.11-3.13-14.22-7.05-20.11-7.11-2.6,0-5,.54-6.92,3.24ZM665.81,470a29.63,29.63,0,0,0-5.77.47c-8.09,1.47-11,3.28-16.18,10.2-6.05,8-8.64,15.45-8.64,24.74,0,18.05,10.82,30.59,27.41,31.79,6.09.43,7.39.17,13.19-2.69,8.22-4,13.74-11,17-21.48.21-.68.69-8.17,1-8.17-2.09-3.9-4.76-3.53-5-14.48-.06-3.32-.09-5.56-.13-8l-.08.33-2.41-3.27C682,473.65,674.12,470.13,665.81,470Zm-3.49,7.41c12.27,0,18.63,4.07,22.59,14.44,2.34,6.15,1.68,19.38-1.26,25.07a26.76,26.76,0,0,1-11.47,11.59c-11.44,5.84-26.51-2.35-29.83-16.22a31.91,31.91,0,0,1,7.34-29c2.76-3,4.83-5.92,12.63-5.92Zm-118.44,7c-5.06,0-10,7.14-8.89,12.8.78,3.91-.56,4.27-9.77,2.67-11.55-2-18.72.55-22.22,7.91-4.3,9.07.46,19.89,10.88,24.72a16.53,16.53,0,0,0,14.25.36c4.5-1.88,7-4.06,8.94-7.82,2.38-4.6.14-5.57-4.16-1.8a18.53,18.53,0,0,1-6.3,3.73c-1.5.33-3.26.76-3.91,1-2.62.8-8.34-1.78-11.23-5.06-4-4.54-4.76-7.83-2.82-11.9,2.35-4.93,6.36-6.16,15.63-4.82,12.35,1.79,21.28-1,18.33-5.74-1.67-2.66-1.56-7.93.17-8.6.77-.29,3.58,1,6.25,2.93,5.3,3.79,11.6,6.06,15.32,5.52,4.24-.62,3.37-2.72-2.15-5.18a67.23,67.23,0,0,1-10.79-6.52c-3-2.28-6.4-4.15-7.53-4.15Zm8.44,38c-3.45,0-5.2,6.77-2.88,11.12a13.79,13.79,0,0,0,4.25,3.93c3.86,2.36,5.56,2.43,8.47.4,3.17-2.23,3-4.82-.37-4.19-4,.77-7.84-3.05-7.71-7.63C554.16,523.15,553.81,522.43,552.32,522.43ZM571,550.77a1.08,1.08,0,0,0-.56.12c-1.9,1.18-1.13,4.35,1.57,6.47a10.92,10.92,0,0,0,6.37,2.07c4.31,0,9-3.16,9-6.07,0-2.15-2-2.55-3.77-.76s-8.19,1.18-10.31-.74a3.93,3.93,0,0,0-2.3-1.09Zm-20.06,49.81c-28.22-.05-72,1-79.38,2.48-3.48.67-2.06,2.78,2.39,3.55s73.38,0,91.34-1c11.75-.66,15-2.07,9.6-4.14-1.51-.58-11.12-.84-23.95-.86Zm71.17,14.54h0l-31.11.64c-17.12.35-32.08.91-33.25,1.24-2.34.66-4.37,4.27-4.37,7.77,0,5.16,19.11,45.75,31.3,66.49,5.26,8.94,6.69,10.64,10.64,12.63,6.11,3.08,10.26,3.91,18.31,3.67,3.64-.11,8.13.07,8.24.41,1-1.24,8.5-4.6,13-7.56-3.44.29-13.15.55-16.47.71-14.37.69-21.38-.83-25-5.42-2.22-2.82-32-61.89-33.7-66.77a9.09,9.09,0,0,1-.28-5c.73-2,1.5-2,41.11-1.85,34.81.14,77.71,1.63,84.47,2.93,1.57.3,3.4,3.3,7.39,12.17,8.06,17.89,22.75,47,27.4,54.27a102.35,102.35,0,0,1,5.36,9.25c1.15,2.63,1.08,2.76-1.52,2.73a12.32,12.32,0,0,1-3.59-1,88.19,88.19,0,0,0,9.77,7.06l8.91-.07,18.18-.16h0l-15.46-7.87s-3.14-1-2.54-5.93h-5.15c-5,0-5.23-.11-7.63-4.24-3.47-6-7.14-13.39-7.48-15-1-2-3.29-6.28-3.29-6.28l0-.63a11.82,11.82,0,0,0-2-3.93c-1.13-1.6-5.91-11.11-10.62-21.16S693,624.14,691.49,622c-2.48-3.71-2.94-4-6.88-3.67a12.71,12.71,0,0,1-4.16-.12,40.1,40.1,0,0,1-8.9-.88c-2.45,0-6.44-.32-13.17-.91-4.67-.41-13.34-.79-19.27-.84l-10.77-.1h0Zm-139,22.1c-8,0-11.21.36-12.08,1.08-2.46,2-.82,4,3.69,4.4,7.11.65,34.87.57,40.66-.12,3.9-.46,5.5-1.08,5.5-2.13,0-2.27-5.84-2.93-28.16-3.19-3.78,0-7-.06-9.61,0Zm152.47,6.33a12.47,12.47,0,0,0-7,1.91c-4.31,2.62-6.57,8-5.73,13.58s3.76,9.12,10,12q10.69,5,15.93-.45c5.13-5.36,4.44-13.91-1.69-20.9-3.44-3.91-7.47-6-11.46-6.14Zm-.61,6.79c2.16,0,4.65,1.13,6.91,3.52,3.7,3.92,4.72,7.5,3.08,10.79-.8,1.63-2.16,2.37-4.73,2.58-5.09.43-10.85-4.93-10.85-10.1C629.38,652.76,631.82,650.35,635,650.34ZM497.54,675c-8.33-.06-17.09.18-19.41.77-3.14.8-3.83,4.23-1,5,3.11.81,9.69.7,22.8-.36,12.81-1,16.62-2.19,14.44-4.36-.61-.61-8.51-1-16.83-1Zm241.34,19.89v.48A1.29,1.29,0,0,0,738.88,694.89Zm-6.22,6.34a37.56,37.56,0,0,1,4.15.2c3.54.29,6.77.86,7.17,1.27s-2.5.73-6.44.73c-5.13,0-7.16-.36-7.16-1.27,0-.6.63-.89,2.28-.93Zm-173.74,75c-10.25.1-19.54,7.42-19.54,18.52a20.36,20.36,0,0,0,6.15,14.36c2.9,2.63,8.19,5.36,10.41,5.36.81,0,2.89.29,2.88.87l2.33-6.13a.86.86,0,0,1-.41.24c-3.27,0-11-4.79-13.16-9-2.67-5.23-2.35-9.15,1.06-12.8,5.05-5.4,11.21-6.53,18.24-3.34,5.3,2.42,9.62,4.16,7.27,8.69,1.9-1.92,1.05-5.36,2.81-8.88h0l-4.25-3.24a22.32,22.32,0,0,0-13.79-4.67Z" class="cls-8" id="path1622"></path><path d="M332.08,337.39a7.55,7.55,0,0,1-7.55,7.55h0a7.55,7.55,0,1,1,7.55-7.55Z" class="cls-9" id="path7004-5-5-1-7"></path><path d="M738.54,514.3a7.55,7.55,0,1,1-7.55-7.55A7.55,7.55,0,0,1,738.54,514.3Z" class="cls-9" id="path7004-5-5-1-7-6"></path><path d="M335.16,246h-3.24c-26.12.17-46.12,14.34-49.49,35.07-.53,3.23-1.91,9.24-3.07,13.37-1.57,5.6-1.95,9-1.51,13.5.32,3.3.55,8.49.5,11.55-.09,6.54.86,9.4,4.58,13.82a13.25,13.25,0,0,1,3.13,7.95c.5,6.08,4.09,13.27,7.58,15.17,2.49,1.36,3.06,1.34,5.74-.19,2.85-1.63,3-1.62,4,.24.57,1.06,1.31,5.43,1.64,9.7l.6,7.76-4.14,1.82a23.5,23.5,0,0,0-7.38,5.93c-4.22,5.34-6.71,7.58-22,19.71-7,5.56-20.1,16.8-29.11,25l-16.39,14.86,2.37-7.65c1.31-4.2,4.65-16.19,7.44-26.64,9.32-35,10.47-38,17.59-46.5,8.68-10.36,13.47-20,13.53-27.25.06-6.4-3.84-15.92-9.3-22.71l-3.21-4,3-7.27c2.5-6,3.69-7.62,6.73-9.24,5-2.68,8.86-9.4,8.95-15.62.09-6-1.39-7.81-4.83-6-6.39,3.43-11.78,0-14.32-9.17-1.1-3.94-2.11-5.76-3.19-5.76-4.32,0-12.61,8.88-13.69,14.65-.83,4.42.1,10.13,2,12.21,1.3,1.44,1.25,2.27-.4,7.13l-1.86,5.5-6.43-.35c-6-.32-6.64-.14-10.06,2.86-4.23,3.72-10.9,16.63-13.13,25.45-3,11.93-1.19,20.1,5.91,26.33l3.73,3.28-4.71,11.21c-18.88,44.87-36.33,78.84-42.4,82.5-3.22,2-7.88,9.94-8.6,14.75-.75,5,.13,9.9,2.15,11.92,1.19,1.18,1.23,2.19.23,5.91-2.46,9.2,2.23,19.9,11.27,25.7,13.93,8.94,27,8.16,69.91-4.18,28.46-8.18,33.55-8.94,42.18-6.33,4.95,1.5,6.64,2.59,9,5.83,4.7,6.48,21.92,35.57,24.44,41.27l2.33,5.26-2.94,6.29c-4.67,10-9.28,26.4-8.06,28.68.77,1.43.64,2.23-.52,3.19-2.07,1.72-4.41,6.37-4.41,8.77a8.4,8.4,0,0,0,1.85,4.23l1.86,2.29-8.4,10.57c-16.12,20.29-36.77,52.57-50.86,79.49-12.69,24.23-19.18,41.34-30.55,80.47-5.37,18.47-7.48,29.88-10.78,35.61-5.8,10.05-5.35,12.89-2.06,17.43l3.06,4.23-3.68,9.17c-2,5-4.31,9.88-5.07,10.74a5.6,5.6,0,0,0-1.38,2.5c0,.51-2.36,2.24-5.25,3.84-7.79,4.32-26.74,17.82-28.16,19.82-8.11,2.16-14.49,5.06-16.75,11.77H93.16l0-.07c-4.62.14-11.47.21-21.91.3l-31.35.26c-6.14,0-3.21,5,0,5l60.5.49h0c91.29.76,883.59.88,914,.15l26.5-.64c4.28,0,3.32-5,0-5l-16.12-.28-16.12-.27-5.76-.46-18.72.27-18.72.27-8.17-.39a92.42,92.42,0,0,1-10.4.35c-6.06,0-11.14-.29-12.27-.68H915c-8.51.57-27.54.67-76.12.64l-77.07,0-8-12.57c-4.4-6.91-9.89-15.48-12.21-19-4.07-6.25-4.21-6.74-4.1-14.13.26-17.5-.13-23.45-2.6-39.15-1.43-9.08-2.82-17.63-3.11-19l-.52-2.51-.79-5.51h0l-1.09-5c-.87-4.07-1.2-5.6-.82-5.73s.72.35,1.49,1a78.33,78.33,0,0,0,9.25,5.64v0l7.49,4.07h0s8.35,3.48,16.75,6.65c1.37.31,2.73.69,4.25,1.18a117.44,117.44,0,0,0,15.9,3.53c8.07,1.16,8.72,1.33,6.85,2.6a10.81,10.81,0,0,0,4-1.32c5.28-2.88,6-4.4,6-4.41l-7.86-1.18c-9.5-1.43-42-8.88-65.37-26.49-.77-.58-1.65-3.52-2.31-6.17s-1.64-4.73-2.19-4.6c-2.11.5-1.44,9.69,2.5,34.28,6.42,40,8.11,52,7.46,53.06-.33.53-2.9,2.13-5.72,3.56h0a34.45,34.45,0,0,1-10.86,3.11c-5.67.52-5.78.48-7.85-2.86-3.74-6-24.13-48.47-29.6-61.64-5-12-10.2-29.92-11.33-38.94-1.49-11.86.35-17.56,8.07-24.94,6.3-6,10.27-7.79,17.44-7.75,5.3,0,8.36-.68,16.82,5.26s14.69,6.57,20,5.15a88.56,88.56,0,0,1-9.76-7.07,44.32,44.32,0,0,1-5.65-2.77c-9.57-5.57-14.68-7.33-21.47-7.37A26.69,26.69,0,0,0,675.65,698c-2.76,2.1-4.49,2.54-10.56,2.67a76.38,76.38,0,0,1-13.68-1.09c-4.89-1-22.27-4.57-35.06,13.55-1.9,2.7-4.77,6.35-5.75,8.6-5,11.35-18.71,37.69-25.75,49.29,0,0-16,25.16-18.06,28.31h0c-2.29,3.49-4.84,6.34-6,8.37-6,10.46-4,12.59-3.37,15.73l1.13,5.72-4.21,6.17c-8,11.69-37.82,27.79-52.63,35.51-9.83,5.11-19.22,10-20.87,10.94h0c-2.34,1.29-5.53,1.63-14.5,1.53-3.66,0-6.87-.14-9.77-.31H431.33c0,.24-42.77.44-95,.44-75.15,0-95.11-.26-95.41-1.25-2.17-7-6.74-20.32-8.46-24.6l-2.14-5.34,8.2-8.41c6.33-6.49,8.82-8.4,10.94-8.4,4.73,0,9.85-9.85,23.82-45.82,4.85-12.47,10.3-26.73,12.12-31.68,3.29-9,3.35-9.06,18.42-24.5,23.06-23.64,36.61-39.46,46-53.7,2.34-3.55,3.18-4.13,5.42-3.73,4.21.76,7.56,1.28,8.71,1.36,1.78.12,22.37,23.61,35.83,40.86l12.6,16.15v0l-.5-7.44h0l-2.65-4.5c-5.16-8.77-17.78-24.65-28.6-36-9.2-9.65-10.75-11.72-9.59-12.81,2.29-2.14.57-3.1-4.47-2.51-5.76.69-15.47-1.14-20-3.75-6.6-3.81-8.56-1.19-2.85,3.82L347,674.1l-9.59,12.06c-9.2,11.55-45,52.3-48.56,55.24-2.86,2.37-7.77,13.18-20,44C255.41,819.2,250.25,830,247,830.82c-2.91.78-4.23.67-10.47-.84-7.72-1.87-19.56-8-23-12l-3-3.45,3.3-6.79c3.82-7.87,8.66-22.36,18.47-55.3,3.85-12.93,8.13-26.81,9.52-30.86,6.67-19.46,38.42-72.83,63.24-106.32,5.22-7,9.7-12.82,9.95-12.82a47.79,47.79,0,0,1,5.66,3.52c18.31,12.35,55.35,17.56,79.72,11.19,5.22-1.36,9.71-2.28,10-2,0,0,0,.08,0,.11v-6l-4.75,1.09c-2.61.59-7.68,1.53-11.25,2.09-8.95,1.38-30.94,1.08-40-.55-16.22-2.91-28.94-8.58-40.9-18.23l-2.4-1.94,2.71-3.56,2.72-3.55,5.51,3.86c6.67,4.67,16.91,9,28.36,12.1,7.29,1.94,11,2.28,26,2.28,21.71,0,29-.9,34-1.48v-6.22l-8.25,1.15h0c-10.67,1.49-33.29,1.33-42.3-.31C343.6,593,328,586.55,320.63,579.75l-4.12-3.83,5.1-13.61,5.1-13.62,6.56,5.42c6.73,5.56,20.81,13.31,24.18,13.31s2.05-2.87-2.37-5.59a186.89,186.89,0,0,1-21.95-15.64c-4.76-4.08-6.49-6.55-10.57-15.07-5-10.39-19.3-34.25-23.76-39.55-1.36-1.62-2.47-3.89-2.47-5.06,0-1.57-2.21-3.58-8.42-7.62C272,468.5,264.76,465.6,263.6,469.12c-.45,1.35,4.49,4.67,16.48,11.07,4.54,2.42,8.25,4.48,8.25,4.58s-4.16.23-9.25.28c-9.83.1-13.29.85-37.24,8s-34.58,9.33-46.3,9.33-13.65-.7-19.41-6.66c-5-5.23-6.79-9.91-6.79-18.24,0-3.83-.45-7.25-1-7.59-1.37-.84-1.27-8.9.17-13.69,3.11-10.38,20.14-17.82,37.58-16.42,6.29.51,14.25,2.69,14.25,3.91,0,1.79-2.67,7.63-4.31,9.44-1.12,1.24-1.76,2.53-1.41,2.87,2.27,2.27,9.73-3.74,33.72-27.14a247,247,0,0,1,20.49-17.7c5.5-4.1,12-9.15,14.49-11.23l4.48-3.77.77,3.73a38.5,38.5,0,0,0,3.27,8.36c1.37,2.55,5.44,11.38,9,19.63s7.31,15.75,8.25,16.65c3.14,3,5.95,3.2,8.63.52l2.45-2.46,5,10.15c5.58,11.4,15.2,26.54,21.82,34.35a39.8,39.8,0,0,1,6.24,10.5c2.8,8.14,7.31,16.5,13.65,25.3,8.4,11.65,13,20.69,17.84,35.17,5,14.79,7.25,19.67,8.77,18.73,1.68-1,.27-8.4-4.08-21.42-4.83-14.44-8.25-21.31-17.71-35.58a185.35,185.35,0,0,1-11.32-19.67l-4-8.57.92-13.33c.51-7.33.93-19,1-25.93,0-11.25.24-12.78,2-14.38,2.34-2.12,5.51-10.2,6.47-16.53a86.51,86.51,0,0,1,2.81-11,50.91,50.91,0,0,0,2.18-13c.07-7.43-2.31-12.47-9.24-19.5l-3.94-4,17.62.33c9.69.19,20.78.63,24.63,1l7,.68h0l.5-5.27-2.75-.69c-1.52-.38-13.21-.93-26-1.23s-23.25-.73-23.25-1a47.72,47.72,0,0,1,2.38-5.13c1.31-2.6,3.6-8.16,5.1-12.38,2.48-7,3-7.7,5.86-8.25,4.67-.88,9.34-4.08,11.19-7.66,2.11-4.07,2.17-12.66.13-16.61-2.33-4.51-1.23-12.78,2.29-17.32,5.2-6.68,6.4-11.59,4-16.13-.59-1.1-7.45-8.44-15.25-16.3-12.42-12.52-15.17-14.79-22.14-18.19-6.72-3.28-8-3.79-14.76-3.82Zm-6.81,4.44a47.11,47.11,0,0,1,23,7c4.78,3.2,29.49,27.28,31.17,30.38.77,1.42.34,2.9-1.87,6.5-2.8,4.54-3,4.66-8.38,5a26.8,26.8,0,0,1-7.9-.59c-2.27-.85-2.16-1,2.38-3.26,7.41-3.71,14-11.95,9.47-11.95-.56,0-2.95,1.34-5.33,3-7.77,5.35-14.07,7.26-25.62,7.79-9,.42-11.23.2-15-1.49-3.17-1.4-5.13-1.72-6.8-1.1-2.55.94-12.89-1.4-16.8-3.8-3.08-1.9-5.28-1.7-5.28.48s2.46,4.58,7.37,7l3.69,1.79-3.06,4.23c-2,2.79-4.07,4.43-6,4.82s-3,1.2-3,2.4c0,2.14,3.12,3.36,6.16,2.39,2.11-.67,2.14-.54,1.54,7.22a58.74,58.74,0,0,1-1.48,10.26c-.78,2.13-1.15,1.67-3.63-4.53-4.48-11.22-4.88-11.8-9.13-13.22a10.8,10.8,0,0,0-7.36-.3l-3.39,1,.63-8.86a72.66,72.66,0,0,1,2-13.2c.77-2.39,1.93-6.59,2.58-9.34,2.73-11.56,10-19.1,24.62-25.38,7.58-3.26,10.79-4.12,15.4-4.12Zm-79.72,9.71,1.26,3.64c3,8.66,7.27,12.16,14,11.41l4.44-.5-1.5,3.58q-2.74,6.57-7.13,8.24c-1.22.46-3.2,2.77-4.42,5.13a57.68,57.68,0,0,0-3.29,7.93l-1.09,3.63-4.28-3.8-4.29-3.81,2-6c2.44-7.23,2.47-8,.54-11.74-2.18-4.19-1.84-8.11,1.13-13.18Zm76.1,34.93a1.93,1.93,0,0,1,1.64.85c2.49,3,10.72,4.72,21,4.36,8-.27,10.2,0,11.7,1.29a13.89,13.89,0,0,0,4.22,2.35c2.34.71,2.36.85,1.67,9.87-.39,5-1.35,13-2.15,17.64-1.52,8.92-9.07,32.34-11.73,36.4-.86,1.31-3.63,3.38-6.17,4.61-5.57,2.69-16.24,3-22,.55a20.47,20.47,0,0,0-5.1-1.56c-2.31,0-1.55,2.69,1.5,5.25,3.88,3.27,10.92,5.1,17.5,4.55l5.41-.44.44,6.57c.44,6.39.1,8-4.21,20.07-.69,1.93-2.22,6-3.39,9.15l-2.15,5.65-1.77-3.65c-3-6.31-6.66-13.24-13.91-26.65l-7-13-.23-10.5c-.14-5.77-.75-11.74-1.38-13.27-1.3-3.17-4.17-15.11-4.17-17.35,0-.82.47-1.21,1.05-.85,2,1.21,5.86-2.47,7-6.58.61-2.22,1.13-8.64,1.16-14.25.05-6.95.51-10.83,1.45-12.17a8,8,0,0,0,1.38-3.78c0-1.06,1.13-2.2,2.75-2.78a34.06,34.06,0,0,0,4.42-1.92,2.9,2.9,0,0,1,1.19-.42Zm-94.82,2.76c1.11,0,1.32,1.17,1.78,6.07.42,4.48.16,7.76-.82,10.57-1.69,4.78-5,21.8-6,30.73-.55,5-.36,6.79.95,8.78.9,1.39,2,2.27,2.52,2s2.89-4,5.36-8.33a121,121,0,0,1,8.84-13.12c7.68-9.45,7.41-8.31,3.25-13.74-4.31-5.61-6.95-11.18-8-16.84-.84-4.58-1.75-5,9.58,4.26,6,4.9,8.18,7.46,10.94,12.91,5.93,11.7,4.3,18.66-8,34.33-9.62,12.24-10,13.39-23.06,62.25-2.89,10.86-5.73,19.69-6.31,19.62a56.07,56.07,0,0,1-6-2c-6-2.2-16.69-2.42-24.76-.52l-5.77,1.36,4.4-8.13c12.78-23.56,32.32-67.93,33.37-75.74.46-3.48.09-4.33-3.64-8.38-4.77-5.17-6.11-8.1-6.11-13.33,0-4.53,3.38-17,5.95-22,2.19-4.26,7.64-9.65,10.65-10.56a4.1,4.1,0,0,1,.94-.19Zm167.89,4.68c-5.71,5.72-7.88,11.89-7.88,23.92,0,8.33.46,11.85,2.24,17,3.25,9.38,4.53,12.76,8.78,14.27,4,1,13.68-1.14,16.06-4.2,2.67-3.51,3.22-8.42,1-11.61-1-1.42-1.5-6.87-1.82-19.47-.51-20-1.61-23.87-6.65-24C405.43,298.33,401.41,298.9,397.8,302.51Zm8.74.22c1.81.06,2.43,4.52,3.1,17,.46,8.58,1.49,17.44,2.37,20.28a23.24,23.24,0,0,1,1.21,7.44c-.4,2.8-4.75,4.75-9.47,4.24-2.89-.31-3.27-.8-4.76-6.13-5.13-18.29-3.14-33.88,5.31-41.53a3.79,3.79,0,0,1,2.24-1.27Zm-33,2.7h2.7l-1.89,5.48c-3,8.71-3.51,8.92-3.51,1.45C370.87,305.5,370.9,305.43,373.57,305.43ZM289.83,316.5a8.26,8.26,0,0,1,4.59,1.21c1.41,1.12,4.37,9.44,5.63,15.85.6,3-.15,3.64-3.67,3.08-7.16-1.12-15-14.85-10.8-19,.77-.77,2.48-1.14,4.25-1.13Zm-54.23,0,3.69,4.65,3.69,4.66-4.1,4a64,64,0,0,0-5.85,6.54c-1,1.38-1.57,1.83-1.34,1s1.21-5.86,2.17-11.2Zm140.78,4.67a.12.12,0,0,1,.1,0c.57.19.86,2.49.38,5.34a13.61,13.61,0,0,1-3.52,7.07c-1.55,1.54-3.34,2.8-4,2.8-2.09,0-.08-6.73,2.91-9.72a17.5,17.5,0,0,0,3.33-4.29c.29-.82.57-1.19.8-1.21v0Zm-29.31,4.9h-.31c-1.74.23-3.38,3.74-3.38,8,0,3.36.53,4.63,2.63,6.28,2.8,2.2,6.83,2.75,7.87,1.06.35-.55-.53-3.45-1.94-6.44a36.52,36.52,0,0,1-2.56-6.36A3.76,3.76,0,0,0,348,326.5a1.64,1.64,0,0,0-.9-.4ZM290.6,339.8l4.64,1.18c4.26,1.08,4.69,1.47,5.23,4.78.32,2,.12,4.06-.45,4.64a3.56,3.56,0,0,1-5.67-1,54.37,54.37,0,0,1-2.42-5.82Zm61.09,35.35c1-.1,2.21,1.17,5.58,5,5.62,6.3,9.1,12.6,9.1,16.4,0,4-4.87,26.12-6.75,30.68-1.77,4.32-3.24,5.53-3.24,2.67,0-2.28-6.65-15.18-10-19.43l-2.87-3.63,2.44-6.72a38.27,38.27,0,0,0,2.44-14.53c0-6.36.34-8.11,1.87-9.5a2.87,2.87,0,0,1,1.44-.89ZM304.22,380a.45.45,0,0,1,.27.05c.52.32,2.88,4.73,5.25,9.8s6.22,12.49,8.56,16.49c4.22,7.23,4.24,7.31,3.08,12.46-.64,2.85-2.26,8.56-3.6,12.69-4.12,12.71-3.27,13.45-14.94-13a105.85,105.85,0,0,0-5.24-10.37c-3.17-5.14-4-13.19-1.83-17.76S302.68,380.06,304.22,380Zm36.75,32,2.71,4.59c1.48,2.52,2.7,5.09,2.7,5.71s-1.68,2.27-3.73,3.67c-6,4.07-5.93,4.2-3.43-6.47Zm-15.45,7,2,4.42c2.21,5,2.15,5.81-.35,5.3-1.38-.29-1.74-1.36-1.68-5Zm23.84,8.32,1,2.65a15.66,15.66,0,0,1,1,4.35,12,12,0,0,0,1.35,4.27c1.05,2,1.16,4.88.5,13-.47,5.73-1.2,15.36-1.62,21.42l-.77,11-5.58-8.49c-10.27-15.65-21.89-37.72-21.89-41.56,0-1.79.45-1.78,5.78.07,5.49,1.92,12,.45,16.85-3.76Zm370.66.28c-3.31-.14-6.27,1.08-9.36,4.17-5,5-6,13.06-5.93,15,.23,6.68.09,6.82-3.54,9.74-4.12,3.31-9,12.55-11.14,20.89l-1.28,5.09c0,2.4.07,4.65.14,8,.21,11,6.13,22.43,8,24.33s4.33,3.83,5.39,4.17c1.5.47,2,1.72,2.27,5.57.22,3.1-.06,5-.73,5-3.81,0-25.94,19.57-36.73,32.49l-5,6-5.59-.25h0c-5.41-.23-5.69-.12-8.65,3.63l-3.05,3.88h0L639.68,583c-1.46,3.14-4.48,8.29-9.6,16.69-2.09,3.43-4.74,8.29-5.88,10.82l-2.09,4.59,6.23.32h0l2-3.75c1.11-2.07,6.69-11.86,12.41-21.75,9.17-15.9,10.67-18,12.75-17.75,4.84.51,18.36,8.11,23.19,13l4.82,4.92L680,601c-1.94,6-3.82,12.14-4.18,13.65-.44,1.82-2,3-1.08,3.12a31.16,31.16,0,0,0,5.7.36s-.06,0-.06-.07a40.76,40.76,0,0,1,1.87-4.86,113,113,0,0,0,4-13.22c2.29-9.31,2-12.82-1.46-16.63-1.13-1.23-1.28-2.31-.59-4.12.79-2.08,1.46-2.39,4.39-2,3.59.42,10.26-2.3,12.63-5.15a2.7,2.7,0,0,1,3.43-.72c1.2.44,6.9.47,12.68,0s10.57-.69,10.67-.61a56.26,56.26,0,0,1-1.44,6.65c-2.35,9.52-2.29,35.3.12,43.92,1.4,5,4.11,10.24,5.67,13.87,5,11.68,10.37,4.86,14.14,1,5.71-5.78,11.09-15.19,13.79-24.11,3.48-11.51,4.84-13.72,8.44-13.72,1.7,0,6.4-1.64,10.46-3.64,8.26-4.08,17.6-5.41,24.66-3.49,3.88,1.05,4.49,1.85,17.75,23.36,15.44,25,19.6,31.84,24.32,39.77l3.27,5.5-8.68.67c-8.9.68-19,3.6-30.77,8.87-7,3.15-6.6,3.4-7.87-4.54-1.5-9.44-8.46-26.53-12-29.47s-3.42.61.3,10.48a237.66,237.66,0,0,1,8.6,27.74h0c.83,3.8,1.63,3.94-22.79-3.9-16.93-5.42-20.63-5.9-25.72-3.28-.92.48-3.36.2-5.87-.66-7.46-2.57-13.88-2.15-21.5,1.42s-7.56,3.56-7.56,2.07v-.05l0,.63s2.31,4.26,3.29,6.28c0-.16,0-.28,0-.32.2-.2,3-1.56,6.32-3,6.21-2.77,15.59-3.67,17.58-1.68.7.7.3,2.41-1.25,5.4-1.74,3.33-2.29,6.09-2.33,11.61h0l-.05,6.71a2.57,2.57,0,0,1,0,.48v.06h0c-.6,4.91,2.54,5.92,2.54,5.92l15.46,7.87h0l8,3.7c21.65,10,41.82,16.45,58.82,18.77l8.93,1.22-.63,7.57c-.64,7.64-1.26,11.6-3.45,15.18,5.15-4.75,8.83-7.93,8.83-7.93V733.48c19.59,2.92,24.38-10.71,25.26-16.54,1.07-7.06-.65-17.15-6.14-29.62l-4-9,2.21-2.37c3.4-3.68,5-7.17,4.3-9.73-.32-1.28-2.63-5.43-5.13-9.23a78.05,78.05,0,0,1-4.45-7.34l-4.2-6.76a12,12,0,0,1-1.44-2.09l-2.06-3.59,2.56-5.15c2.13-4.31,2.55-6.56,2.55-13.66,0-12.34-1.7-15.22-20.46-34.51-25.62-26.36-27.62-33-23.5-78.24,2-21.6,1-31.71-3.77-41.23-4.33-8.58-12.63-16.95-20.4-20.6,0,0-3.68-2.65-38.43-8.86-3.85-.69-8.43-2.91-11.28-4.43-3.57-1.92-6.43-2.94-9-3.05Zm1.56,6a13,13,0,0,1,8.59,3.21c2.06,2,4.85,3,11.71,4.26,32.47,6.08,36.67,7.63,45.06,16.69,8.73,9.43,10.76,14.26,11.24,26.76a278.67,278.67,0,0,1-1.29,28.5c-2.51,26.75-1.16,36.61,7.24,52.89,4.16,8,6.31,10.71,18.52,22.85,17,16.89,19.21,20.79,18.53,32.64h0c-.75,12.93-1.08,12.77-12.8-6.22-6.06-9.81-12.84-19.42-16-22.72-4.84-5-6.26-5.86-11.37-6.92-7.12-1.48-12.44-.76-22.83,3.07-4.35,1.6-9.43,2.91-11.3,2.91-6.66,0-13-9.69-15.65-24-1.62-8.66-.42-32.77,2.25-45.5a107.08,107.08,0,0,0,2.38-23.64l.06-12.63,7.58.52c8,.55,14.92-.92,14.92-3.18,0-.89-2.77-1.47-9.25-1.94-18.22-1.31-29.4-5.07-37.09-12.45-4.63-4.45-6.62-8.06-8.1-14.68-.87-3.94-1.53-5-3.09-5s-2,.79-2.27,4.66a21.4,21.4,0,0,0,1.28,8.46c1.51,3.61,1.49,3.94-.44,6.34-5.78,7.21-11.19,23.24-12.64,37.47-.82,7.92-1.61,9.47-3.9,7.57-4.07-3.38-8.5-16.32-8.5-24.84,0-9,4.87-21.46,11.25-28.71,3.3-3.75,4-5.31,3.92-8.28-.23-5.84,2.5-13.76,5.59-16.2A10.22,10.22,0,0,1,721.58,433.51Zm2.94,36.82,4.06,3.66c3.53,3.2,9.11,6.21,19,10.24,2.18.89,2.81,2,3.38,5.74.85,5.68.23,11.5-3.32,31.28l-2.74,15.31-7,3.37h0c-10.22,4.92-10.36,4.92-15.5-.15a87.08,87.08,0,0,0-8.75-7.44c-3.93-2.78-4.25-3.35-4.25-7.52s1.86-18.52,2.52-19.22c.17-.18,1.29.19,2.48.84a7.39,7.39,0,0,0,4.56.56c2.66-.66,7.44-5.36,7.44-7.31,0-1.38-.58-1.5-6.5-1.33-6.47.18-6.67-.4-3.54-10.15a84.48,84.48,0,0,1,5.49-13.29ZM375.86,504.59a2.23,2.23,0,0,0-1.69.64,2.77,2.77,0,0,0-.43,2.71c.8,2.09,4,1.53,4.45-.77A2.31,2.31,0,0,0,375.86,504.59Zm17.19,29c-1.22-.07-1.67.41-1.67,1.64a4.44,4.44,0,0,0,.7,2.6c1.33,1.33,3.8.1,3.8-1.88,0-1.3-.78-2.1-2.25-2.31l-.57-.06Zm312.64,1.87c2.47,0,10.26,4.9,14,8.81,2.63,2.74,2.71,3.12,1.7,7.64-1.51,6.71-3.61,10.34-7.31,12.6-3.18,1.93-7.74,2.65-7.67,1.2a13.63,13.63,0,0,1,1.47-3.25c1.88-3.3,1.87-6,0-6-1.55,0-2.51.93-9.16,8.81-4.42,5.23-6.71,6.54-11.15,6.37h0c-2.57-.09-4.07.6-6.16,2.84s-3,2.69-3.84,1.67a25,25,0,0,0-5.62-3.56l-4.55-2.27,3.26-4.55c3.32-4.65,22.1-22.33,29.16-27.47C701.92,536.71,704.58,535.43,705.69,535.43Zm38.44,8.21,0,10.66c.07,17.27,3.66,29.34,11.12,37.44,3.56,3.85,4,4.79,3.17,6.94-.59,1.54-2.48,3.09-5,4.11h0c-5.14,2.06-9.69,2.08-13.56.07-3.41-1.78-7.27-5.18-8.54-7.52-.83-1.54.87-16.71,2.85-25.55.56-2.53.55-4.73,0-5.77-1.43-2.56-4.58-14.47-4-15.07a3.79,3.79,0,0,1,2.11-.53c.87,0,3.89-1.08,6.71-2.4Zm-17.86,15.62c.6.11,1.11,1.25,1.65,3.42.63,2.56.46,2.75-2.42,2.75h-3.09l1.67-3.51c.9-1.89,1.59-2.78,2.19-2.66Zm5.39,45c.3,0,.71.36,1.23,1.2,2.41,3.9,14.08,6.23,20,4,2.44-.93,2.59-.84,2,1.25a103.45,103.45,0,0,1-4.67,10,70.56,70.56,0,0,1-7.81,12c-3.17,4.44-4.68,2.64-5.87-.34-4.06-9.06-6.94-28-4.82-28.08Zm113.82,62.22c6.74,0,8.25,1.73,5.48,5.51-1.36,1.86-1.45,1.84-2.66-.81-1.56-3.43-3.92-3.59-3.92-.24,0,1.37,2.77,9.13,6.16,17.25,5.26,12.63,6.21,15.83,6.56,22.25.47,8.82-1.26,12.61-7,15.33-4.42,2.1-10.86,2-26-.4-20.73-3.28-37.32-8.91-67.21-22.77l-13-6,.3-5.28c.52-9.12,5.42-17.69,11.64-20.36,2.65-1.14,4.15-.83,15.5,3.21,12.57,4.48,39.59,11.85,48.06,13.12a91.84,91.84,0,0,0,11,.68c5.23,0,6.54-.32,6.8-1.65s-1.08-1.87-7-2.82c-4-.64-9.78-1.85-12.8-2.7s-6.37-1.7-7.43-1.9c-2-.4-4.24-2.13-3.51-2.76,2.11-1.78,27.68-9,33.53-9.39,2.12-.16,4-.24,5.51-.23Zm-200.12,39c7.1,0,17.4,2.12,19.36,4,.47.45-5.34,6.45-3.33,20.83,0,5.51,3.23,20.08,6.44,29.1a19.6,19.6,0,0,1,1.31,4.63,56,56,0,0,1-6.5.65c-6,.42-6.17.37-4.57-1.4,1.14-1.25,1.34-2.16.64-2.86-2.65-2.65-21.77,16.81-51.33,52.27-11.15,13.37-21.15,25.09-22.24,26-2.67,2.36-3.63,2.23-8.82-1.16-5.78-3.78-9.19-6.87-11.74-10.65-4.43-6.55-4.28-7,6.84-23.54,18.68-27.71,32.42-52,41.48-73.19,4.65-10.89,10.34-17.48,18.68-21.65,5.23-2.61,7.23-3.06,13.78-3.06Zm26.52,64.8,3.66,8.85a81.84,81.84,0,0,1,3.31,9l4.62,9.22a62.55,62.55,0,0,1,4.3,8c6.28,12.75,17.61,32.36,19.56,33.9a6.54,6.54,0,0,0,3.21,1.25c1.88,0,8.23,12.6,7.2,14.25-1.91,3.09-26.16,19.6-35.08,23.88l-10.22,4.9H586.33c-13.72,0-25-.2-25-.45,0-1.17,8.69-20.07,13.24-28.8,4.66-8.93,5.33-9.75,8-9.75,4.48,0,8.59-3.82,24.91-23.14,7.13-8.43,13.37-15.52,15.26-17.36.82-1,5.38-6.83,6.62-8.42,2.94-4.57,19.61-22.37,21.82-23.22,1.46-.57,6.71-1.26,11.66-1.55ZM216.5,828.58l4.81,2.41a53.13,53.13,0,0,0,10.19,3.61c3,.65,5.53,1.3,5.71,1.43s-7.75,10.58-9.7,12.54c-1.14,1.15-5.13,2-5.13,1.12,0-1.94-4.23-5.24-8-6.26-2.2-.59-4-1.23-4-1.42s1.38-3.3,3.06-6.89Zm345.21,5,4.08,3.3a51.74,51.74,0,0,0,6.39,4.49c2.29,1.19,2.29,1.2-1.5,3.78a48.46,48.46,0,0,1-7,3.94,19.34,19.34,0,0,1-4,1.34c-1.08,0-6.8-2.89-6.93-3.5-.06-.27,2.92-3,5.07-6.67Zm170.43,2.11,1,5.89c.89,5.51.77,6.2-1.88,10.84-2.29,4-6.48,8.12-6.93,6.81-.06-.16-.23-1.41-.37-2.78a41.85,41.85,0,0,0-2.45-7.91c-2.35-5.84-2.17-8.08.64-8.11,1,0,3.64-1.07,5.91-2.37ZM208.48,848.54c.71,0,1.57.13,2.69.28,6.9.94,8,2.49,5.63,7.82S204,876,201.88,876.79c-2.41.93-1.81,3.64.82,3.64,5.14,0,17.18-14.12,18.38-21.57.5-3.07.91-3.49,3.09-3.23s2.76,1.2,4.7,8.31a111.56,111.56,0,0,0,4.35,12.87,35,35,0,0,1,2.16,5.75c0,.48-9.14.88-20.31.88H194.75l-2.21-3c-2.92-4-6.1-5.94-11.82-7.4L176,871.83l3.77-2.33,3.78-2.33,3.8,2.13c7.1,4,10.56,1.84,4-2.49l-4.09-2.71,3.16-2c2.7-1.71,3.61-1.83,6.37-.84,4.48,1.63,7.57,1.48,7.57-.35,0-.84-1.12-2-2.49-2.66s-2.5-1.41-2.5-1.73a24.07,24.07,0,0,1,3.56-4.47c2.57-2.79,3.4-3.56,5.54-3.52Zm338.85,1.84,4,2.66c3.56,2.36,4.72,2.61,9.9,2.14l5.88-.53-5.39,11.64c-3,6.4-6,12.77-6.66,14.15-1.21,2.35-1.81,2.51-10.5,2.79-4.29.13-5.55,0-7.81,0-.4-1.14,1-5.94-12.61-12.28l-4.7-2.19,4.2-2.33c2.31-1.28,8.58-5.41,13.93-9.18ZM737,854.84c.52,0,1.13,1.06,2.42,3.6a149.67,149.67,0,0,0,13.72,20.75l3.42,4.25H720.75l-2.11-2.87a30.16,30.16,0,0,0-6.69-5.75c-2.51-1.58-4.57-3.17-4.57-3.51s2.44-2.52,5.42-4.82c5.36-4.13,5.46-4.16,8.49-2.6a8.89,8.89,0,0,0,5.57,1c2.37-.6,6.73-4.9,9.12-9,.38-.64.66-1,1-1Zm-224.3,18.74a16.92,16.92,0,0,1,3.48.67c5.9,1.52,15.64,8.54,14.28,8.73-2.47.34-7.88.46-18,.46-11.08,0-19.94-.34-19.68-.75s4.56-2.76,9.56-5.21C508.42,874.47,510.46,873.5,512.65,873.58Zm189.13,1.56,6.37,3.4c3.5,1.87,6.58,3.73,6.85,4.14s-5.16.75-12.06.75-12.56-.16-12.56-.35a43,43,0,0,1,5.7-4.15Zm-526.33,3.35c5.66,0,11,1.17,12.94,3.46h0c1.08,1.3-.67,1.48-14.14,1.45-13.78,0-15.17-.18-13.42-1.51,3-2.28,9-3.42,14.62-3.41Z" class="cls-10" id="path1575"></path></svg>